Average-Regular.otf.ufo
<glyph name="exclam" format="1">
  <advance width="236"/>
  <unicode hex="0021"/>
  <outline>
    <contour>
      <point x="118" y="-9" type="curve" name="hr00"/>
      <point x="147" y="-9" smooth="yes"/>
      <point x="171" y="14" smooth="yes"/>
      <point x="171" y="46" type="curve" smooth="yes"/>
      <point x="171" y="76" smooth="yes"/>
      <point x="147" y="99" smooth="yes"/>
      <point x="118" y="99" type="curve" smooth="yes"/>
      <point x="89" y="99" smooth="yes"/>
      <point x="65" y="76" smooth="yes"/>
      <point x="65" y="46" type="curve" smooth="yes"/>
      <point x="65" y="14"/>
      <point x="89" y="-9"/>
    </contour>
    <contour>
      <point x="172" y="691" type="line"/>
      <point x="66" y="689"/>
      <point x="64" y="664"/>
      <point x="64" y="664" type="curve"/>
      <point x="101" y="159" type="line"/>
      <point x="139" y="168" type="line"/>
    </contour>
  </outline>
</glyph>
<glyph name="dollar" format="1">
  <advance width="523"/>
  <unicode hex="0024"/>
  <outline>
    <contour>
      <point x="274" y="641" type="line" name="hr00"/>
      <point x="265" y="641" type="line" smooth="yes"/>
      <point x="159" y="641" smooth="yes"/>
      <point x="87" y="581" smooth="yes"/>
      <point x="87" y="487" type="curve" smooth="yes"/>
      <point x="87" y="406" smooth="yes"/>
      <point x="120" y="373" smooth="yes"/>
      <point x="190" y="323" type="curve" smooth="yes"/>
      <point x="203" y="313"/>
      <point x="216" y="304"/>
      <point x="230" y="294" type="curve"/>
      <point x="199" y="44" type="line"/>
      <point x="149" y="57"/>
      <point x="126" y="97"/>
      <point x="112" y="181" type="curve"/>
      <point x="88" y="170" type="line"/>
      <point x="88" y="164" smooth="yes"/>
      <point x="89" y="158" smooth="yes"/>
      <point x="89" y="152" type="curve" smooth="yes"/>
      <point x="89" y="114"/>
      <point x="80" y="52"/>
      <point x="74" y="25" type="curve"/>
      <point x="107" y="12"/>
      <point x="150" y="1"/>
      <point x="193" y="-4" type="curve"/>
      <point x="179" y="-121" type="line"/>
      <point x="224" y="-121" type="line"/>
      <point x="238" y="-9" type="line"/>
      <point x="256" y="-9" type="line" smooth="yes"/>
      <point x="374" y="-9" smooth="yes"/>
      <point x="453" y="58" smooth="yes"/>
      <point x="453" y="166" type="curve" smooth="yes"/>
      <point x="453" y="236" smooth="yes"/>
      <point x="418" y="283" smooth="yes"/>
      <point x="343" y="335" type="curve" smooth="yes"/>
      <point x="325" y="347"/>
      <point x="305" y="360"/>
      <point x="285" y="374" type="curve"/>
      <point x="312" y="591" type="line"/>
      <point x="352" y="580"/>
      <point x="379" y="550"/>
      <point x="398" y="481" type="curve"/>
      <point x="422" y="493" type="line"/>
      <point x="417" y="526" smooth="yes"/>
      <point x="411" y="584" smooth="yes"/>
      <point x="411" y="620" type="curve" smooth="yes"/>
      <point x="411" y="633" type="line"/>
      <point x="396" y="630" smooth="yes"/>
      <point x="383" y="628" smooth="yes"/>
      <point x="372" y="628" type="curve" smooth="yes"/>
      <point x="352" y="628"/>
      <point x="336" y="632"/>
      <point x="318" y="635" type="curve"/>
      <point x="334" y="762" type="line"/>
      <point x="289" y="762" type="line"/>
    </contour>
    <contour>
      <point x="244" y="39" type="line"/>
      <point x="272" y="265" type="line"/>
      <point x="278" y="260"/>
      <point x="284" y="255"/>
      <point x="291" y="251" type="curve"/>
      <point x="326" y="224" smooth="yes"/>
      <point x="355" y="201" smooth="yes"/>
      <point x="355" y="139" type="curve" smooth="yes"/>
      <point x="355" y="76"/>
      <point x="322" y="39"/>
      <point x="245" y="39" type="curve"/>
    </contour>
    <contour>
      <point x="172" y="519" type="curve"/>
      <point x="172" y="558" smooth="yes"/>
      <point x="210" y="597" smooth="yes"/>
      <point x="266" y="597" type="curve" smooth="yes"/>
      <point x="268" y="597" type="line"/>
      <point x="244" y="402" type="line"/>
      <point x="208" y="428" smooth="yes"/>
      <point x="172" y="459" smooth="yes"/>
    </contour>
  </outline>
</glyph>
<glyph name="percent" format="1">
  <advance width="784"/>
  <unicode hex="0025"/>
  <outline>
    <contour>
      <point x="146" y="-1" type="line"/>
      <point x="194" y="-1" type="line"/>
      <point x="606" y="679" type="line"/>
      <point x="558" y="679" type="line"/>
    </contour>
    <contour>
      <point x="197" y="638" type="curve" smooth="yes" name="hr01"/>
      <point x="228" y="638" smooth="yes"/>
      <point x="243" y="581" smooth="yes"/>
      <point x="243" y="510" type="curve" smooth="yes"/>
      <point x="243" y="437" smooth="yes"/>
      <point x="228" y="382" smooth="yes"/>
      <point x="197" y="382" type="curve" smooth="yes"/>
      <point x="167" y="382" smooth="yes"/>
      <point x="151" y="437" smooth="yes"/>
      <point x="151" y="510" type="curve" smooth="yes"/>
      <point x="151" y="581" smooth="yes"/>
      <point x="167" y="638" smooth="yes"/>
    </contour>
    <contour>
      <point x="314" y="509" type="curve" smooth="yes"/>
      <point x="314" y="599" smooth="yes"/>
      <point x="276" y="673" smooth="yes"/>
      <point x="197" y="673" type="curve" smooth="yes"/>
      <point x="118" y="673" smooth="yes"/>
      <point x="80" y="599" smooth="yes"/>
      <point x="80" y="509" type="curve" smooth="yes"/>
      <point x="80" y="419" smooth="yes"/>
      <point x="118" y="346" smooth="yes"/>
      <point x="197" y="346" type="curve" smooth="yes"/>
      <point x="276" y="346" smooth="yes"/>
      <point x="314" y="419" smooth="yes"/>
    </contour>
    <contour>
      <point x="547" y="283" type="curve" smooth="yes"/>
      <point x="578" y="283" smooth="yes"/>
      <point x="593" y="226" smooth="yes"/>
      <point x="593" y="155" type="curve" smooth="yes"/>
      <point x="593" y="82" smooth="yes"/>
      <point x="578" y="27" smooth="yes"/>
      <point x="547" y="27" type="curve" smooth="yes"/>
      <point x="517" y="27" smooth="yes"/>
      <point x="501" y="82" smooth="yes"/>
      <point x="501" y="155" type="curve" smooth="yes"/>
      <point x="501" y="226" smooth="yes"/>
      <point x="517" y="283" smooth="yes"/>
    </contour>
    <contour>
      <point x="664" y="154" type="curve" smooth="yes"/>
      <point x="664" y="244" smooth="yes"/>
      <point x="626" y="318" smooth="yes"/>
      <point x="547" y="318" type="curve" smooth="yes"/>
      <point x="468" y="318" smooth="yes"/>
      <point x="430" y="244" smooth="yes"/>
      <point x="430" y="154" type="curve" smooth="yes"/>
      <point x="430" y="64" smooth="yes"/>
      <point x="468" y="-9" smooth="yes"/>
      <point x="547" y="-9" type="curve" smooth="yes"/>
      <point x="626" y="-9" smooth="yes"/>
      <point x="664" y="64" smooth="yes"/>
    </contour>
  </outline>
</glyph>
<glyph name="ampersand" format="1">
  <advance width="739"/>
  <unicode hex="0026"/>
  <outline>
    <contour>
      <point x="610" y="303" type="curve"/>
      <point x="619" y="326"/>
      <point x="645" y="343"/>
      <point x="705" y="355" type="curve"/>
      <point x="702" y="384" type="line"/>
      <point x="670" y="380" smooth="yes"/>
      <point x="629" y="378" smooth="yes"/>
      <point x="587" y="378" type="curve" smooth="yes"/>
      <point x="537" y="378"/>
      <point x="488" y="380"/>
      <point x="449" y="384" type="curve"/>
      <point x="446" y="355" type="line"/>
      <point x="510" y="343" smooth="yes"/>
      <point x="532" y="332" smooth="yes"/>
      <point x="532" y="309" type="curve" smooth="yes"/>
      <point x="532" y="261"/>
      <point x="514" y="211"/>
      <point x="486" y="167" type="curve"/>
      <point x="437" y="220"/>
      <point x="367" y="307"/>
      <point x="313" y="393" type="curve"/>
      <point x="314" y="393" smooth="yes"/>
      <point x="314" y="394" smooth="yes"/>
      <point x="315" y="395" type="curve" smooth="yes"/>
      <point x="378" y="436" smooth="yes"/>
      <point x="476" y="504" smooth="yes"/>
      <point x="476" y="587" type="curve" smooth="yes"/>
      <point x="476" y="673" smooth="yes"/>
      <point x="393" y="707" smooth="yes"/>
      <point x="315" y="707" type="curve" smooth="yes"/>
      <point x="208" y="707" smooth="yes"/>
      <point x="147" y="637" smooth="yes"/>
      <point x="147" y="559" type="curve" smooth="yes"/>
      <point x="147" y="515"/>
      <point x="175" y="451"/>
      <point x="218" y="379" type="curve"/>
      <point x="219" y="379" type="line"/>
      <point x="105" y="312" smooth="yes"/>
      <point x="50" y="248" smooth="yes"/>
      <point x="50" y="159" type="curve" smooth="yes"/>
      <point x="50" y="64" smooth="yes"/>
      <point x="123" y="-10" smooth="yes"/>
      <point x="245" y="-10" type="curve" smooth="yes"/>
      <point x="311" y="-10"/>
      <point x="386" y="13"/>
      <point x="456" y="71" type="curve"/>
      <point x="482" y="42"/>
      <point x="511" y="12"/>
      <point x="536" y="-13" type="curve" name="hr01"/>
      <point x="589" y="1"/>
      <point x="739" y="33"/>
      <point x="739" y="33" type="curve"/>
      <point x="736" y="62" type="line"/>
      <point x="613" y="63"/>
      <point x="559" y="94"/>
      <point x="516" y="135" type="curve"/>
      <point x="552" y="181" smooth="yes"/>
      <point x="584" y="237" smooth="yes"/>
    </contour>
    <contour>
      <point x="284" y="46" type="curve" name="hr02"/>
      <point x="214" y="46" smooth="yes"/>
      <point x="143" y="74" smooth="yes"/>
      <point x="143" y="180" type="curve" smooth="yes"/>
      <point x="143" y="255"/>
      <point x="191" y="306"/>
      <point x="241" y="345" type="curve"/>
      <point x="289" y="271"/>
      <point x="361" y="180"/>
      <point x="428" y="103" type="curve"/>
      <point x="386" y="69" smooth="yes"/>
      <point x="336" y="46" smooth="yes"/>
    </contour>
    <contour>
      <point x="233" y="578" type="curve"/>
      <point x="233" y="640" smooth="yes"/>
      <point x="268" y="666" smooth="yes"/>
      <point x="306" y="666" type="curve" smooth="yes"/>
      <point x="345" y="666" smooth="yes"/>
      <point x="387" y="638" smooth="yes"/>
      <point x="387" y="578" type="curve" smooth="yes"/>
      <point x="387" y="527"/>
      <point x="367" y="475"/>
      <point x="293" y="423" type="curve"/>
      <point x="257" y="484" smooth="yes"/>
      <point x="233" y="539" smooth="yes"/>
    </contour>
  </outline>
</glyph>
<glyph name="quotesingle" format="1">
  <advance width="152"/>
  <unicode hex="0027"/>
  <outline>
    <contour>
      <point x="128" y="683" type="line" name="hr00"/>
      <point x="43" y="683"/>
      <point x="36" y="659"/>
      <point x="36" y="659" type="curve"/>
      <point x="56" y="438" type="line"/>
      <point x="97" y="438"/>
      <point x="96" y="451"/>
      <point x="96" y="451" type="curve"/>
    </contour>
  </outline>
</glyph>
<glyph name="parenleft" format="1">
  <advance width="397"/>
  <unicode hex="0028"/>
  <outline>
    <contour>
      <point x="164" y="291" type="curve" name="hr00"/>
      <point x="164" y="419"/>
      <point x="211" y="556"/>
      <point x="317" y="681" type="curve"/>
      <point x="286" y="709" type="line"/>
      <point x="119" y="573"/>
      <point x="70" y="418"/>
      <point x="70" y="291" type="curve"/>
      <point x="70" y="163"/>
      <point x="119" y="-9"/>
      <point x="286" y="-145" type="curve"/>
      <point x="317" y="-116" type="line"/>
      <point x="211" y="7"/>
      <point x="164" y="161"/>
    </contour>
  </outline>
</glyph>
<glyph name="parenright" format="1">
  <advance width="397"/>
  <unicode hex="0029"/>
  <outline>
    <contour>
      <point x="233" y="291" type="curve" name="hr00"/>
      <point x="233" y="161"/>
      <point x="186" y="7"/>
      <point x="80" y="-116" type="curve"/>
      <point x="111" y="-145" type="line"/>
      <point x="278" y="-9"/>
      <point x="327" y="163"/>
      <point x="327" y="291" type="curve"/>
      <point x="327" y="418"/>
      <point x="278" y="573"/>
      <point x="111" y="709" type="curve"/>
      <point x="80" y="681" type="line"/>
      <point x="186" y="556"/>
      <point x="233" y="419"/>
    </contour>
  </outline>
</glyph>
<glyph name="asterisk" format="1">
  <advance width="457"/>
  <unicode hex="002A"/>
  <outline>
    <contour>
      <point x="321" y="348" type="line" name="hr00"/>
      <point x="340" y="377" type="line"/>
      <point x="340" y="377"/>
      <point x="308" y="434"/>
      <point x="255" y="518" type="curve"/>
      <point x="329" y="517"/>
      <point x="406" y="505"/>
      <point x="406" y="505" type="curve"/>
      <point x="427" y="571" type="line"/>
      <point x="406" y="599" type="line"/>
      <point x="406" y="599"/>
      <point x="341" y="586"/>
      <point x="244" y="561" type="curve"/>
      <point x="267" y="631"/>
      <point x="303" y="701"/>
      <point x="303" y="701" type="curve"/>
      <point x="248" y="742" type="line"/>
      <point x="214" y="730" type="line"/>
      <point x="214" y="730"/>
      <point x="207" y="664"/>
      <point x="201" y="564" type="curve"/>
      <point x="141" y="608"/>
      <point x="86" y="664"/>
      <point x="86" y="664" type="curve"/>
      <point x="31" y="623" type="line"/>
      <point x="30" y="588" type="line"/>
      <point x="30" y="588"/>
      <point x="90" y="561"/>
      <point x="183" y="524" type="curve"/>
      <point x="123" y="481"/>
      <point x="53" y="446"/>
      <point x="53" y="446" type="curve"/>
      <point x="76" y="380" type="line"/>
      <point x="110" y="370" type="line"/>
      <point x="110" y="370"/>
      <point x="154" y="418"/>
      <point x="216" y="494" type="curve"/>
      <point x="239" y="424"/>
      <point x="251" y="348"/>
      <point x="251" y="348" type="curve"/>
    </contour>
  </outline>
</glyph>
<glyph name="hyphen" format="1">
  <advance width="314"/>
  <unicode hex="002D"/>
  <outline>
    <contour>
      <point x="148" y="235" type="curve" smooth="yes"/>
      <point x="232" y="241"/>
      <point x="257" y="241"/>
      <point x="257" y="241" type="curve"/>
      <point x="296" y="293" type="line"/>
      <point x="288" y="308" type="line" name="hr01"/>
      <point x="288" y="308" smooth="yes"/>
      <point x="253" y="295" smooth="yes"/>
      <point x="154" y="289" type="curve" smooth="yes" name="hr02"/>
      <point x="69" y="284"/>
      <point x="57" y="284"/>
      <point x="57" y="284" type="curve"/>
      <point x="18" y="232" type="line"/>
      <point x="26" y="216" type="line" name="hr03"/>
      <point x="26" y="216" smooth="yes"/>
      <point x="72" y="230" smooth="yes"/>
    </contour>
  </outline>
</glyph>
<glyph name="period" format="1">
  <advance width="165"/>
  <unicode hex="002E"/>
  <outline>
    <contour>
      <point x="82" y="-9" type="curve" smooth="yes" name="hr00"/>
      <point x="111" y="-9" smooth="yes"/>
      <point x="135" y="13" smooth="yes"/>
      <point x="135" y="46" type="curve" smooth="yes"/>
      <point x="135" y="76" smooth="yes"/>
      <point x="111" y="98" smooth="yes"/>
      <point x="82" y="98" type="curve" smooth="yes"/>
      <point x="53" y="98" smooth="yes"/>
      <point x="30" y="76" smooth="yes"/>
      <point x="30" y="46" type="curve" smooth="yes"/>
      <point x="30" y="13" smooth="yes"/>
      <point x="53" y="-9" smooth="yes"/>
    </contour>
  </outline>
</glyph>
<glyph name="zero" format="1">
  <advance width="523"/>
  <unicode hex="0030"/>
  <outline>
    <contour>
      <point x="485" y="332" type="curve" name="hr00"/>
      <point x="485" y="520" smooth="yes"/>
      <point x="414" y="673" smooth="yes"/>
      <point x="261" y="673" type="curve" smooth="yes"/>
      <point x="108" y="673" smooth="yes"/>
      <point x="37" y="520" smooth="yes"/>
      <point x="37" y="332" type="curve" smooth="yes"/>
      <point x="37" y="144" smooth="yes"/>
      <point x="108" y="-9" smooth="yes"/>
      <point x="261" y="-9" type="curve" smooth="yes"/>
      <point x="414" y="-9"/>
      <point x="485" y="144"/>
    </contour>
    <contour>
      <point x="261" y="628" type="curve"/>
      <point x="349" y="628" smooth="yes"/>
      <point x="390" y="496" smooth="yes"/>
      <point x="390" y="332" type="curve" smooth="yes"/>
      <point x="390" y="168" smooth="yes"/>
      <point x="349" y="36" smooth="yes"/>
      <point x="261" y="36" type="curve" smooth="yes"/>
      <point x="173" y="36" smooth="yes"/>
      <point x="132" y="168" smooth="yes"/>
      <point x="132" y="332" type="curve" smooth="yes"/>
      <point x="132" y="496"/>
      <point x="173" y="628"/>
    </contour>
  </outline>
</glyph>
<glyph name="six" format="1">
  <advance width="486"/>
  <unicode hex="0036"/>
  <outline>
    <contour>
      <point x="187" y="285" type="line" name="hr00"/>
      <point x="207" y="293" smooth="yes"/>
      <point x="225" y="297" smooth="yes"/>
      <point x="242" y="297" type="curve" smooth="yes"/>
      <point x="308" y="297" smooth="yes"/>
      <point x="347" y="240" smooth="yes"/>
      <point x="347" y="170" type="curve" smooth="yes"/>
      <point x="347" y="106" smooth="yes"/>
      <point x="312" y="42" smooth="yes"/>
      <point x="243" y="42" type="curve" smooth="yes"/>
      <point x="171" y="42" smooth="yes"/>
      <point x="128" y="122" smooth="yes"/>
      <point x="128" y="224" type="curve" smooth="yes"/>
      <point x="128" y="367"/>
      <point x="212" y="557"/>
      <point x="427" y="657" type="curve"/>
      <point x="411" y="692" type="line"/>
      <point x="136" y="569" smooth="yes"/>
      <point x="30" y="384" smooth="yes"/>
      <point x="30" y="234" type="curve" smooth="yes"/>
      <point x="30" y="98" smooth="yes"/>
      <point x="119" y="-9" smooth="yes"/>
      <point x="247" y="-9" type="curve" smooth="yes"/>
      <point x="382" y="-9" smooth="yes"/>
      <point x="446" y="84" smooth="yes"/>
      <point x="446" y="174" type="curve" smooth="yes"/>
      <point x="446" y="258" smooth="yes"/>
      <point x="387" y="341" smooth="yes"/>
      <point x="273" y="341" type="curve" smooth="yes"/>
      <point x="248" y="341"/>
      <point x="218" y="337"/>
      <point x="183" y="325" type="curve"/>
    </contour>
  </outline>
</glyph>
<glyph name="nine" format="1">
  <advance width="503"/>
  <unicode hex="0039"/>
  <outline>
    <contour>
      <point x="304" y="344" type="line" name="hr00"/>
      <point x="287" y="340" smooth="yes"/>
      <point x="271" y="338" smooth="yes"/>
      <point x="257" y="338" type="curve" smooth="yes"/>
      <point x="172" y="338" smooth="yes"/>
      <point x="131" y="409" smooth="yes"/>
      <point x="131" y="479" type="curve" smooth="yes"/>
      <point x="131" y="550" smooth="yes"/>
      <point x="172" y="621" smooth="yes"/>
      <point x="249" y="621" type="curve" smooth="yes"/>
      <point x="327" y="621" smooth="yes"/>
      <point x="377" y="538" smooth="yes"/>
      <point x="377" y="428" type="curve" smooth="yes"/>
      <point x="377" y="277"/>
      <point x="284" y="75"/>
      <point x="58" y="-30" type="curve"/>
      <point x="74" y="-66" type="line"/>
      <point x="361" y="63" smooth="yes"/>
      <point x="473" y="259" smooth="yes"/>
      <point x="473" y="417" type="curve" smooth="yes"/>
      <point x="473" y="561" smooth="yes"/>
      <point x="379" y="673" smooth="yes"/>
      <point x="245" y="673" type="curve" smooth="yes"/>
      <point x="106" y="673" smooth="yes"/>
      <point x="40" y="578" smooth="yes"/>
      <point x="40" y="483" type="curve" smooth="yes"/>
      <point x="40" y="389" smooth="yes"/>
      <point x="105" y="295" smooth="yes"/>
      <point x="228" y="295" type="curve" smooth="yes"/>
      <point x="252" y="295"/>
      <point x="279" y="299"/>
      <point x="308" y="307" type="curve"/>
    </contour>
  </outline>
</glyph>
<glyph name="colon" format="1">
  <advance width="196"/>
  <unicode hex="003A"/>
  <outline>
    <contour>
      <point x="113" y="-9" type="curve" name="hr00"/>
      <point x="142" y="-9" smooth="yes"/>
      <point x="166" y="14" smooth="yes"/>
      <point x="166" y="46" type="curve" smooth="yes"/>
      <point x="166" y="76" smooth="yes"/>
      <point x="142" y="99" smooth="yes"/>
      <point x="113" y="99" type="curve" smooth="yes"/>
      <point x="84" y="99" smooth="yes"/>
      <point x="60" y="76" smooth="yes"/>
      <point x="60" y="46" type="curve" smooth="yes"/>
      <point x="60" y="14"/>
      <point x="84" y="-9"/>
    </contour>
    <contour>
      <point x="113" y="295" type="curve"/>
      <point x="142" y="295" smooth="yes"/>
      <point x="166" y="318" smooth="yes"/>
      <point x="166" y="350" type="curve" smooth="yes"/>
      <point x="166" y="380" smooth="yes"/>
      <point x="142" y="403" smooth="yes"/>
      <point x="113" y="403" type="curve" smooth="yes"/>
      <point x="84" y="403" smooth="yes"/>
      <point x="60" y="380" smooth="yes"/>
      <point x="60" y="350" type="curve" smooth="yes"/>
      <point x="60" y="318"/>
      <point x="84" y="295"/>
    </contour>
  </outline>
</glyph>
<glyph name="semicolon" format="1">
  <advance width="211"/>
  <unicode hex="003B"/>
  <outline>
    <contour>
      <point x="113" y="295" type="curve" name="hr00"/>
      <point x="142" y="295" smooth="yes"/>
      <point x="166" y="318" smooth="yes"/>
      <point x="166" y="350" type="curve" smooth="yes"/>
      <point x="166" y="380" smooth="yes"/>
      <point x="142" y="403" smooth="yes"/>
      <point x="113" y="403" type="curve" smooth="yes"/>
      <point x="84" y="403" smooth="yes"/>
      <point x="60" y="380" smooth="yes"/>
      <point x="60" y="350" type="curve" smooth="yes"/>
      <point x="60" y="318"/>
      <point x="84" y="295"/>
    </contour>
    <contour>
      <point x="109" y="91" type="curve" smooth="yes"/>
      <point x="81" y="91" smooth="yes"/>
      <point x="54" y="73" smooth="yes"/>
      <point x="54" y="41" type="curve" smooth="yes"/>
      <point x="54" y="13" smooth="yes"/>
      <point x="75" y="-8" smooth="yes"/>
      <point x="101" y="-8" type="curve" smooth="yes"/>
      <point x="111" y="-8"/>
      <point x="124" y="-5"/>
      <point x="135" y="7" type="curve"/>
      <point x="135" y="-53"/>
      <point x="87" y="-98"/>
      <point x="27" y="-125" type="curve"/>
      <point x="36" y="-147" type="line"/>
      <point x="142" y="-113" smooth="yes"/>
      <point x="182" y="-48" smooth="yes"/>
      <point x="182" y="5" type="curve" smooth="yes"/>
      <point x="182" y="53" smooth="yes"/>
      <point x="151" y="91" smooth="yes"/>
    </contour>
  </outline>
</glyph>
<glyph name="greater" format="1">
  <advance width="523"/>
  <unicode hex="003E"/>
  <outline>
    <contour>
      <point x="487" y="303" type="line" name="hr00"/>
      <point x="37" y="550" type="line"/>
      <point x="37" y="481" type="line"/>
      <point x="373" y="303" type="line"/>
      <point x="37" y="125" type="line"/>
      <point x="37" y="56" type="line"/>
    </contour>
  </outline>
</glyph>
<glyph name="at" format="1">
  <advance width="781"/>
  <unicode hex="0040"/>
  <outline>
    <contour>
      <point x="624" y="58" type="line"/>
      <point x="524" y="-10" smooth="yes"/>
      <point x="456" y="-23" smooth="yes"/>
      <point x="388" y="-23" type="curve" smooth="yes"/>
      <point x="216" y="-23" smooth="yes"/>
      <point x="125" y="130" smooth="yes"/>
      <point x="125" y="283" type="curve" smooth="yes"/>
      <point x="125" y="452" smooth="yes"/>
      <point x="234" y="597" smooth="yes"/>
      <point x="403" y="597" type="curve" smooth="yes"/>
      <point x="587" y="597" smooth="yes"/>
      <point x="665" y="475" smooth="yes"/>
      <point x="665" y="360" type="curve" smooth="yes"/>
      <point x="665" y="254"/>
      <point x="595" y="153"/>
      <point x="484" y="153" type="curve"/>
      <point x="484" y="207"/>
      <point x="510" y="344"/>
      <point x="550" y="472" type="curve"/>
      <point x="535" y="472" type="line"/>
      <point x="505" y="450" type="line"/>
      <point x="487" y="457" smooth="yes"/>
      <point x="460" y="460" smooth="yes"/>
      <point x="444" y="460" type="curve" smooth="yes"/>
      <point x="306" y="460" smooth="yes"/>
      <point x="219" y="343" smooth="yes"/>
      <point x="219" y="229" type="curve" smooth="yes"/>
      <point x="219" y="162" smooth="yes"/>
      <point x="246" y="124" smooth="yes"/>
      <point x="290" y="124" type="curve" smooth="yes"/>
      <point x="313" y="124"/>
      <point x="356" y="142"/>
      <point x="425" y="240" type="curve"/>
      <point x="427" y="240" type="line"/>
      <point x="421" y="215" smooth="yes"/>
      <point x="417" y="193" smooth="yes"/>
      <point x="417" y="175" type="curve" smooth="yes"/>
      <point x="417" y="142" smooth="yes"/>
      <point x="431" y="123" smooth="yes"/>
      <point x="475" y="123" type="curve" smooth="yes"/>
      <point x="647" y="123" smooth="yes"/>
      <point x="741" y="250" smooth="yes"/>
      <point x="741" y="378" type="curve" smooth="yes"/>
      <point x="741" y="508" smooth="yes"/>
      <point x="644" y="638" smooth="yes"/>
      <point x="434" y="638" type="curve" smooth="yes"/>
      <point x="179" y="638" smooth="yes"/>
      <point x="40" y="445" smooth="yes"/>
      <point x="40" y="270" type="curve" smooth="yes"/>
      <point x="40" y="40" smooth="yes"/>
      <point x="201" y="-68" smooth="yes"/>
      <point x="365" y="-68" type="curve" smooth="yes"/>
      <point x="461" y="-68"/>
      <point x="563" y="-26"/>
      <point x="640" y="35" type="curve"/>
    </contour>
    <contour>
      <point x="438" y="288" type="line"/>
      <point x="380" y="218" smooth="yes"/>
      <point x="344" y="179" smooth="yes"/>
      <point x="327" y="179" type="curve" smooth="yes" name="hr01"/>
      <point x="311" y="179" smooth="yes"/>
      <point x="302" y="202" smooth="yes"/>
      <point x="302" y="235" type="curve" smooth="yes"/>
      <point x="302" y="310" smooth="yes"/>
      <point x="348" y="434" smooth="yes"/>
      <point x="447" y="434" type="curve" smooth="yes"/>
      <point x="456" y="434"/>
      <point x="465" y="432"/>
      <point x="474" y="429" type="curve"/>
    </contour>
  </outline>
</glyph>
<glyph name="A" format="1">
  <advance width="694"/>
  <unicode hex="0041"/>
  <outline>
    <contour>
      <point x="3" y="-3" type="line"/>
      <point x="55" y="-1" smooth="yes"/>
      <point x="75" y="0" smooth="yes"/>
      <point x="117" y="0" type="curve" smooth="yes" name="hr01"/>
      <point x="165" y="0"/>
      <point x="206" y="-1"/>
      <point x="250" y="-3" type="curve" name="hr02"/>
      <point x="253" y="26" type="line"/>
      <point x="189" y="39"/>
      <point x="167" y="48"/>
      <point x="167" y="64" type="curve"/>
      <point x="221" y="242" type="line"/>
      <point x="447" y="242" type="line"/>
      <point x="502" y="64" type="line"/>
      <point x="502" y="48"/>
      <point x="483" y="39"/>
      <point x="414" y="26" type="curve"/>
      <point x="417" y="-3" type="line"/>
      <point x="458" y="-1" smooth="yes"/>
      <point x="507" y="0" smooth="yes"/>
      <point x="558" y="0" type="curve" smooth="yes" name="hr03"/>
      <point x="606" y="0"/>
      <point x="647" y="-1"/>
      <point x="691" y="-3" type="curve" name="hr04"/>
      <point x="694" y="26" type="line"/>
      <point x="634" y="37" smooth="yes"/>
      <point x="618" y="46" smooth="yes"/>
      <point x="609" y="69" type="curve" smooth="yes"/>
      <point x="376" y="694" type="line"/>
      <point x="292" y="684" type="line"/>
      <point x="93" y="75" type="line" smooth="yes"/>
      <point x="85" y="50"/>
      <point x="63" y="38"/>
      <point x="0" y="26" type="curve"/>
    </contour>
    <contour>
      <point x="235" y="288" type="line"/>
      <point x="326" y="590" type="line"/>
      <point x="330" y="590" type="line"/>
      <point x="431" y="288" type="line"/>
    </contour>
  </outline>
</glyph>
<glyph name="C" format="1">
  <advance width="700"/>
  <unicode hex="0043"/>
  <outline>
    <contour>
      <point x="404" y="-12" type="curve"/>
      <point x="480" y="-12"/>
      <point x="563" y="4"/>
      <point x="645" y="34" type="curve"/>
      <point x="647" y="74"/>
      <point x="656" y="125"/>
      <point x="668" y="168" type="curve"/>
      <point x="641" y="180" type="line"/>
      <point x="612" y="89" smooth="yes"/>
      <point x="527" y="37" smooth="yes"/>
      <point x="407" y="37" type="curve" smooth="yes"/>
      <point x="255" y="37" smooth="yes"/>
      <point x="153" y="163" smooth="yes"/>
      <point x="153" y="351" type="curve" smooth="yes"/>
      <point x="153" y="530" smooth="yes"/>
      <point x="252" y="648" smooth="yes"/>
      <point x="402" y="648" type="curve" smooth="yes"/>
      <point x="513" y="648"/>
      <point x="587" y="602"/>
      <point x="614" y="517" type="curve"/>
      <point x="641" y="529" type="line"/>
      <point x="634" y="570"/>
      <point x="629" y="637"/>
      <point x="629" y="685" type="curve"/>
      <point x="612" y="681" smooth="yes"/>
      <point x="596" y="679" smooth="yes"/>
      <point x="577" y="679" type="curve" smooth="yes"/>
      <point x="535" y="679" smooth="yes"/>
      <point x="486" y="694" smooth="yes"/>
      <point x="403" y="694" type="curve" smooth="yes" name="hr01"/>
      <point x="194" y="694" smooth="yes"/>
      <point x="48" y="546" smooth="yes"/>
      <point x="48" y="334" type="curve" smooth="yes"/>
      <point x="48" y="117" smooth="yes"/>
      <point x="180" y="-12" smooth="yes"/>
    </contour>
  </outline>
</glyph>
<glyph name="G" format="1">
  <advance width="759"/>
  <unicode hex="0047"/>
  <outline>
    <contour>
      <point x="407" y="37" type="curve" smooth="yes"/>
      <point x="222" y="37" smooth="yes"/>
      <point x="153" y="203" smooth="yes"/>
      <point x="153" y="351" type="curve" smooth="yes"/>
      <point x="153" y="557" smooth="yes"/>
      <point x="280" y="648" smooth="yes"/>
      <point x="414" y="648" type="curve" smooth="yes"/>
      <point x="509" y="648"/>
      <point x="604" y="618"/>
      <point x="637" y="517" type="curve"/>
      <point x="665" y="529" type="line"/>
      <point x="659" y="563" smooth="yes"/>
      <point x="653" y="629" smooth="yes"/>
      <point x="653" y="670" type="curve" smooth="yes"/>
      <point x="653" y="685" type="line"/>
      <point x="636" y="681" smooth="yes"/>
      <point x="620" y="679" smooth="yes"/>
      <point x="604" y="679" type="curve" smooth="yes"/>
      <point x="555" y="679" smooth="yes"/>
      <point x="504" y="694" smooth="yes"/>
      <point x="418" y="694" type="curve" smooth="yes" name="hr01"/>
      <point x="178" y="694" smooth="yes"/>
      <point x="48" y="525" smooth="yes"/>
      <point x="48" y="334" type="curve" smooth="yes"/>
      <point x="48" y="107" smooth="yes"/>
      <point x="190" y="-12" smooth="yes"/>
      <point x="404" y="-12" type="curve" smooth="yes"/>
      <point x="489" y="-12"/>
      <point x="571" y="10"/>
      <point x="677" y="55" type="curve"/>
      <point x="684" y="235" type="line"/>
      <point x="687" y="260"/>
      <point x="679" y="266"/>
      <point x="739" y="278" type="curve"/>
      <point x="736" y="307" type="line"/>
      <point x="694" y="305" smooth="yes"/>
      <point x="683" y="304" smooth="yes"/>
      <point x="633" y="304" type="curve" smooth="yes"/>
      <point x="583" y="304"/>
      <point x="541" y="305"/>
      <point x="499" y="307" type="curve"/>
      <point x="496" y="278" type="line"/>
      <point x="556" y="266"/>
      <point x="575" y="260"/>
      <point x="578" y="235" type="curve"/>
      <point x="578" y="235"/>
      <point x="584" y="169"/>
      <point x="585" y="73" type="curve"/>
      <point x="549" y="54" smooth="yes"/>
      <point x="477" y="37" smooth="yes"/>
    </contour>
  </outline>
</glyph>
<glyph name="I" format="1">
  <advance width="342"/>
  <unicode hex="0049"/>
  <outline>
    <contour>
      <point x="216" y="342" type="curve" smooth="yes"/>
      <point x="216" y="557"/>
      <point x="224" y="616"/>
      <point x="224" y="616" type="curve"/>
      <point x="227" y="641"/>
      <point x="246" y="647"/>
      <point x="306" y="659" type="curve"/>
      <point x="303" y="688" type="line"/>
      <point x="261" y="686" smooth="yes"/>
      <point x="223" y="685" smooth="yes"/>
      <point x="173" y="685" type="curve" smooth="yes"/>
      <point x="123" y="685"/>
      <point x="81" y="686"/>
      <point x="39" y="688" type="curve"/>
      <point x="36" y="659" type="line"/>
      <point x="96" y="647"/>
      <point x="115" y="641"/>
      <point x="118" y="616" type="curve"/>
      <point x="118" y="616" smooth="yes"/>
      <point x="126" y="557" smooth="yes"/>
      <point x="126" y="342" type="curve" smooth="yes"/>
      <point x="126" y="128"/>
      <point x="118" y="69"/>
      <point x="118" y="69" type="curve"/>
      <point x="115" y="44"/>
      <point x="89" y="38"/>
      <point x="29" y="26" type="curve"/>
      <point x="32" y="-3" type="line"/>
      <point x="74" y="-1" smooth="yes"/>
      <point x="123" y="0" smooth="yes"/>
      <point x="173" y="0" type="curve" smooth="yes" name="hr01"/>
      <point x="223" y="0"/>
      <point x="264" y="-1"/>
      <point x="306" y="-3" type="curve" name="hr02"/>
      <point x="309" y="26" type="line"/>
      <point x="249" y="38"/>
      <point x="227" y="44"/>
      <point x="224" y="69" type="curve"/>
      <point x="224" y="69" smooth="yes"/>
      <point x="216" y="127" smooth="yes"/>
    </contour>
  </outline>
</glyph>
<glyph name="J" format="1">
  <advance width="352"/>
  <unicode hex="004A"/>
  <outline>
    <contour>
      <point x="29" y="-178" type="curve" smooth="yes" name="hr00"/>
      <point x="101" y="-178" smooth="yes"/>
      <point x="237" y="-45" smooth="yes"/>
      <point x="237" y="215" type="curve" smooth="yes"/>
      <point x="237" y="430"/>
      <point x="242" y="616"/>
      <point x="242" y="616" type="curve"/>
      <point x="245" y="641"/>
      <point x="267" y="647"/>
      <point x="327" y="659" type="curve"/>
      <point x="324" y="688" type="line"/>
      <point x="282" y="686" smooth="yes"/>
      <point x="244" y="685" smooth="yes"/>
      <point x="194" y="685" type="curve" smooth="yes"/>
      <point x="144" y="685"/>
      <point x="102" y="686"/>
      <point x="60" y="688" type="curve"/>
      <point x="57" y="659" type="line"/>
      <point x="117" y="647"/>
      <point x="136" y="641"/>
      <point x="139" y="616" type="curve"/>
      <point x="139" y="616" smooth="yes"/>
      <point x="147" y="514" smooth="yes"/>
      <point x="147" y="299" type="curve" smooth="yes"/>
      <point x="147" y="-66"/>
      <point x="113" y="-104"/>
      <point x="52" y="-105" type="curve"/>
      <point x="27" y="-105"/>
      <point x="-4" y="-94"/>
      <point x="-17" y="-85" type="curve"/>
      <point x="-33" y="-105" type="line"/>
      <point x="-24" y="-140"/>
      <point x="19" y="-178"/>
    </contour>
  </outline>
</glyph>
<glyph name="L" format="1">
  <advance width="580"/>
  <unicode hex="004C"/>
  <outline>
    <contour>
      <point x="224" y="69" type="curve"/>
      <point x="224" y="69" smooth="yes"/>
      <point x="216" y="127" smooth="yes"/>
      <point x="216" y="342" type="curve" smooth="yes"/>
      <point x="216" y="557"/>
      <point x="224" y="616"/>
      <point x="224" y="616" type="curve"/>
      <point x="227" y="641"/>
      <point x="246" y="647"/>
      <point x="306" y="659" type="curve"/>
      <point x="303" y="688" type="line"/>
      <point x="261" y="686" smooth="yes"/>
      <point x="223" y="685" smooth="yes"/>
      <point x="173" y="685" type="curve" smooth="yes"/>
      <point x="123" y="685"/>
      <point x="81" y="686"/>
      <point x="39" y="688" type="curve"/>
      <point x="36" y="659" type="line"/>
      <point x="96" y="647"/>
      <point x="115" y="641"/>
      <point x="118" y="616" type="curve"/>
      <point x="118" y="616" smooth="yes"/>
      <point x="126" y="557" smooth="yes"/>
      <point x="126" y="342" type="curve" smooth="yes"/>
      <point x="126" y="127"/>
      <point x="117" y="69"/>
      <point x="117" y="69" type="curve"/>
      <point x="114" y="44"/>
      <point x="88" y="38"/>
      <point x="28" y="26" type="curve"/>
      <point x="31" y="-3" type="line"/>
      <point x="73" y="-1" smooth="yes"/>
      <point x="101" y="0" smooth="yes"/>
      <point x="151" y="0" type="curve" smooth="yes" name="hr01"/>
      <point x="544" y="0" type="line"/>
      <point x="546" y="36"/>
      <point x="556" y="123"/>
      <point x="568" y="159" type="curve"/>
      <point x="541" y="171" type="line"/>
      <point x="500" y="43" smooth="yes"/>
      <point x="424" y="36" smooth="yes"/>
      <point x="321" y="36" type="curve" smooth="yes"/>
      <point x="278" y="36"/>
      <point x="226" y="48"/>
    </contour>
  </outline>
</glyph>
<glyph name="O" format="1">
  <advance width="786"/>
  <unicode hex="004F"/>
  <outline>
    <contour>
      <point x="632" y="312" type="curve" smooth="yes" name="hr00"/>
      <point x="632" y="216" smooth="yes"/>
      <point x="573" y="32" smooth="yes"/>
      <point x="388" y="32" type="curve" smooth="yes"/>
      <point x="210" y="32" smooth="yes"/>
      <point x="154" y="185" smooth="yes"/>
      <point x="154" y="350" type="curve" smooth="yes"/>
      <point x="154" y="437" smooth="yes"/>
      <point x="195" y="650" smooth="yes"/>
      <point x="398" y="650" type="curve" smooth="yes"/>
      <point x="589" y="650" smooth="yes"/>
      <point x="632" y="484" smooth="yes"/>
    </contour>
    <contour>
      <point x="737" y="369" type="curve" smooth="yes"/>
      <point x="737" y="564" smooth="yes"/>
      <point x="641" y="698" smooth="yes"/>
      <point x="414" y="698" type="curve" smooth="yes"/>
      <point x="152" y="698" smooth="yes"/>
      <point x="49" y="507" smooth="yes"/>
      <point x="49" y="314" type="curve" smooth="yes"/>
      <point x="49" y="119" smooth="yes"/>
      <point x="145" y="-16" smooth="yes"/>
      <point x="372" y="-16" type="curve" smooth="yes"/>
      <point x="634" y="-16" smooth="yes"/>
      <point x="737" y="176" smooth="yes"/>
    </contour>
  </outline>
</glyph>
<glyph name="R" format="1">
  <advance width="668"/>
  <unicode hex="0052"/>
  <outline>
    <contour>
      <point x="227" y="69" type="curve"/>
      <point x="227" y="69"/>
      <point x="216" y="105"/>
      <point x="216" y="320" type="curve"/>
      <point x="283" y="320"/>
      <point x="302" y="321"/>
      <point x="319" y="322" type="curve"/>
      <point x="496" y="-9" type="line"/>
      <point x="496" y="-9"/>
      <point x="601" y="-3"/>
      <point x="665" y="-3" type="curve" name="hr01"/>
      <point x="668" y="26" type="line"/>
      <point x="608" y="31"/>
      <point x="585" y="43"/>
      <point x="585" y="43" type="curve"/>
      <point x="409" y="336" type="line"/>
      <point x="512" y="387" smooth="yes"/>
      <point x="544" y="457" smooth="yes"/>
      <point x="544" y="525" type="curve" smooth="yes"/>
      <point x="544" y="609" smooth="yes"/>
      <point x="482" y="685" smooth="yes"/>
      <point x="346" y="685" type="curve" smooth="yes"/>
      <point x="173" y="685" type="line" smooth="yes"/>
      <point x="123" y="685"/>
      <point x="81" y="686"/>
      <point x="39" y="688" type="curve" name="hr02"/>
      <point x="36" y="659" type="line"/>
      <point x="96" y="647"/>
      <point x="115" y="641"/>
      <point x="118" y="616" type="curve"/>
      <point x="118" y="616" smooth="yes"/>
      <point x="126" y="557" smooth="yes"/>
      <point x="126" y="342" type="curve" smooth="yes"/>
      <point x="126" y="128"/>
      <point x="118" y="69"/>
      <point x="118" y="69" type="curve"/>
      <point x="115" y="44"/>
      <point x="89" y="38"/>
      <point x="29" y="26" type="curve"/>
      <point x="32" y="-3" type="line"/>
      <point x="74" y="-1" smooth="yes"/>
      <point x="123" y="0" smooth="yes"/>
      <point x="174" y="0" type="curve" smooth="yes" name="hr03"/>
      <point x="226" y="0"/>
      <point x="268" y="-1"/>
      <point x="311" y="-3" type="curve" name="hr04"/>
      <point x="314" y="26" type="line"/>
      <point x="252" y="38"/>
      <point x="230" y="44"/>
    </contour>
    <contour>
      <point x="373" y="369" type="curve"/>
      <point x="340" y="362"/>
      <point x="289" y="359"/>
      <point x="216" y="359" type="curve"/>
      <point x="216" y="561"/>
      <point x="226" y="621"/>
      <point x="226" y="621" type="curve"/>
      <point x="231" y="640" smooth="yes"/>
      <point x="239" y="643" smooth="yes"/>
      <point x="287" y="643" type="curve" smooth="yes"/>
      <point x="397" y="643" smooth="yes"/>
      <point x="453" y="601" smooth="yes"/>
      <point x="453" y="525" type="curve" smooth="yes"/>
      <point x="453" y="455"/>
      <point x="422" y="399"/>
    </contour>
  </outline>
</glyph>
<glyph name="S" format="1">
  <advance width="528"/>
  <unicode hex="0053"/>
  <outline>
    <contour>
      <point x="443" y="529" type="line"/>
      <point x="437" y="563" smooth="yes"/>
      <point x="431" y="629" smooth="yes"/>
      <point x="431" y="670" type="curve" smooth="yes"/>
      <point x="431" y="685" type="line"/>
      <point x="414" y="681" smooth="yes"/>
      <point x="399" y="679" smooth="yes"/>
      <point x="386" y="679" type="curve" smooth="yes"/>
      <point x="346" y="679" smooth="yes"/>
      <point x="321" y="694" smooth="yes"/>
      <point x="265" y="694" type="curve" smooth="yes" name="hr01"/>
      <point x="137" y="694" smooth="yes"/>
      <point x="59" y="606" smooth="yes"/>
      <point x="59" y="514" type="curve" smooth="yes"/>
      <point x="59" y="458" smooth="yes"/>
      <point x="88" y="401" smooth="yes"/>
      <point x="151" y="360" type="curve" smooth="yes"/>
      <point x="311" y="255" type="line" smooth="yes"/>
      <point x="354" y="227" smooth="yes"/>
      <point x="376" y="192" smooth="yes"/>
      <point x="376" y="152" type="curve" smooth="yes"/>
      <point x="376" y="97" smooth="yes"/>
      <point x="332" y="41" smooth="yes"/>
      <point x="241" y="41" type="curve" smooth="yes"/>
      <point x="146" y="41"/>
      <point x="111" y="77"/>
      <point x="91" y="185" type="curve"/>
      <point x="64" y="173" type="line"/>
      <point x="64" y="110"/>
      <point x="55" y="62"/>
      <point x="48" y="26" type="curve"/>
      <point x="100" y="4" smooth="yes"/>
      <point x="184" y="-10" smooth="yes"/>
      <point x="254" y="-10" type="curve" smooth="yes"/>
      <point x="406" y="-10" smooth="yes"/>
      <point x="480" y="85" smooth="yes"/>
      <point x="480" y="176" type="curve" smooth="yes"/>
      <point x="480" y="238" smooth="yes"/>
      <point x="445" y="292" smooth="yes"/>
      <point x="376" y="337" type="curve" smooth="yes"/>
      <point x="218" y="440" type="line" smooth="yes"/>
      <point x="174" y="469" smooth="yes"/>
      <point x="151" y="510" smooth="yes"/>
      <point x="151" y="549" type="curve" smooth="yes"/>
      <point x="151" y="599" smooth="yes"/>
      <point x="189" y="644" smooth="yes"/>
      <point x="266" y="644" type="curve" smooth="yes"/>
      <point x="340" y="644"/>
      <point x="388" y="619"/>
      <point x="416" y="517" type="curve"/>
    </contour>
  </outline>
</glyph>
<glyph name="T" format="1">
  <advance width="642"/>
  <unicode hex="0054"/>
  <outline>
    <contour>
      <point x="322" y="685" type="curve" smooth="yes"/>
      <point x="193" y="685"/>
      <point x="105" y="685"/>
      <point x="23" y="691" type="curve" name="hr01"/>
      <point x="23" y="676" type="line"/>
      <point x="23" y="634"/>
      <point x="17" y="563"/>
      <point x="11" y="529" type="curve"/>
      <point x="38" y="517" type="line"/>
      <point x="73" y="630" smooth="yes"/>
      <point x="107" y="643" smooth="yes"/>
      <point x="236" y="643" type="curve" smooth="yes" name="hr02"/>
      <point x="250" y="643"/>
      <point x="264" y="641"/>
      <point x="267" y="616" type="curve"/>
      <point x="267" y="616" smooth="yes"/>
      <point x="275" y="557" smooth="yes"/>
      <point x="275" y="342" type="curve" smooth="yes"/>
      <point x="275" y="128"/>
      <point x="267" y="69"/>
      <point x="267" y="69" type="curve"/>
      <point x="264" y="44"/>
      <point x="238" y="38"/>
      <point x="178" y="26" type="curve"/>
      <point x="181" y="-3" type="line"/>
      <point x="223" y="-1" smooth="yes"/>
      <point x="272" y="0" smooth="yes"/>
      <point x="322" y="0" type="curve" smooth="yes" name="hr03"/>
      <point x="372" y="0"/>
      <point x="413" y="-1"/>
      <point x="455" y="-3" type="curve" name="hr04"/>
      <point x="458" y="26" type="line"/>
      <point x="398" y="38"/>
      <point x="376" y="44"/>
      <point x="373" y="69" type="curve"/>
      <point x="373" y="69" smooth="yes"/>
      <point x="365" y="127" smooth="yes"/>
      <point x="365" y="342" type="curve" smooth="yes"/>
      <point x="365" y="557"/>
      <point x="373" y="616"/>
      <point x="373" y="616" type="curve"/>
      <point x="376" y="641" smooth="yes"/>
      <point x="390" y="643" smooth="yes"/>
      <point x="406" y="643" type="curve" smooth="yes"/>
      <point x="535" y="643"/>
      <point x="569" y="630"/>
      <point x="604" y="517" type="curve"/>
      <point x="631" y="529" type="line"/>
      <point x="625" y="563"/>
      <point x="619" y="634"/>
      <point x="619" y="676" type="curve"/>
      <point x="619" y="691" type="line" name="hr05"/>
      <point x="537" y="685" smooth="yes"/>
      <point x="451" y="685" smooth="yes"/>
    </contour>
  </outline>
</glyph>
<glyph name="V" format="1">
  <advance width="689"/>
  <unicode hex="0056"/>
  <outline>
    <contour>
      <point x="356" y="87" type="line" name="hr00"/>
      <point x="291" y="287" smooth="yes"/>
      <point x="181" y="609" smooth="yes"/>
      <point x="181" y="622" type="curve" smooth="yes"/>
      <point x="181" y="641"/>
      <point x="215" y="648"/>
      <point x="269" y="659" type="curve"/>
      <point x="266" y="688" type="line"/>
      <point x="224" y="686" smooth="yes"/>
      <point x="184" y="685" smooth="yes"/>
      <point x="134" y="685" type="curve" smooth="yes"/>
      <point x="84" y="685"/>
      <point x="43" y="686"/>
      <point x="1" y="688" type="curve"/>
      <point x="-2" y="659" type="line"/>
      <point x="58" y="647"/>
      <point x="73" y="639"/>
      <point x="83" y="616" type="curve"/>
      <point x="297" y="-9" type="line"/>
      <point x="395" y="0" type="line"/>
      <point x="455" y="190"/>
      <point x="604" y="610"/>
      <point x="604" y="610" type="curve"/>
      <point x="614" y="635"/>
      <point x="634" y="647"/>
      <point x="694" y="659" type="curve"/>
      <point x="691" y="688" type="line"/>
      <point x="649" y="686" smooth="yes"/>
      <point x="627" y="685" smooth="yes"/>
      <point x="577" y="685" type="curve" smooth="yes"/>
      <point x="527" y="685"/>
      <point x="486" y="686"/>
      <point x="444" y="688" type="curve"/>
      <point x="441" y="659" type="line"/>
      <point x="496" y="648"/>
      <point x="527" y="640"/>
      <point x="527" y="621" type="curve"/>
      <point x="529" y="607"/>
      <point x="428" y="301"/>
      <point x="361" y="87" type="curve"/>
    </contour>
  </outline>
</glyph>
<glyph name="W" format="1">
  <advance width="990"/>
  <unicode hex="0057"/>
  <outline>
    <contour>
      <point x="491" y="531" type="line" name="hr00"/>
      <point x="657" y="-9" type="line"/>
      <point x="749" y="0" type="line"/>
      <point x="806" y="203"/>
      <point x="907" y="610"/>
      <point x="907" y="610" type="curve"/>
      <point x="913" y="635"/>
      <point x="937" y="647"/>
      <point x="997" y="659" type="curve"/>
      <point x="994" y="688" type="line"/>
      <point x="952" y="686" smooth="yes"/>
      <point x="930" y="685" smooth="yes"/>
      <point x="880" y="685" type="curve" smooth="yes"/>
      <point x="830" y="685"/>
      <point x="789" y="686"/>
      <point x="747" y="688" type="curve"/>
      <point x="744" y="659" type="line"/>
      <point x="799" y="648" smooth="yes"/>
      <point x="830" y="640" smooth="yes"/>
      <point x="830" y="621" type="curve" smooth="yes"/>
      <point x="830" y="589"/>
      <point x="761" y="295"/>
      <point x="716" y="109" type="curve"/>
      <point x="711" y="109" type="line"/>
      <point x="535" y="685" type="line"/>
      <point x="470" y="685" type="line"/>
      <point x="470" y="685"/>
      <point x="394" y="382"/>
      <point x="311" y="109" type="curve"/>
      <point x="306" y="109" type="line"/>
      <point x="244" y="371" smooth="yes"/>
      <point x="184" y="613" smooth="yes"/>
      <point x="184" y="622" type="curve" smooth="yes"/>
      <point x="184" y="641"/>
      <point x="218" y="648"/>
      <point x="272" y="659" type="curve"/>
      <point x="269" y="688" type="line"/>
      <point x="227" y="686" smooth="yes"/>
      <point x="184" y="685" smooth="yes"/>
      <point x="134" y="685" type="curve" smooth="yes"/>
      <point x="84" y="685"/>
      <point x="43" y="686"/>
      <point x="1" y="688" type="curve"/>
      <point x="-2" y="659" type="line"/>
      <point x="58" y="647"/>
      <point x="74" y="639"/>
      <point x="83" y="616" type="curve"/>
      <point x="246" y="-9" type="line"/>
      <point x="338" y="0" type="line"/>
      <point x="487" y="531" type="line"/>
    </contour>
  </outline>
</glyph>
<glyph name="X" format="1">
  <advance width="700"/>
  <unicode hex="0058"/>
  <outline>
    <contour>
      <point x="366" y="409" type="curve"/>
      <point x="285" y="520" smooth="yes"/>
      <point x="217" y="617" smooth="yes"/>
      <point x="217" y="623" type="curve" smooth="yes"/>
      <point x="217" y="640"/>
      <point x="253" y="649"/>
      <point x="306" y="659" type="curve"/>
      <point x="303" y="688" type="line"/>
      <point x="261" y="686" smooth="yes"/>
      <point x="212" y="685" smooth="yes"/>
      <point x="162" y="685" type="curve" smooth="yes"/>
      <point x="112" y="685"/>
      <point x="71" y="686"/>
      <point x="29" y="688" type="curve"/>
      <point x="26" y="659" type="line"/>
      <point x="86" y="647" smooth="yes"/>
      <point x="96" y="637" smooth="yes"/>
      <point x="111" y="616" type="curve" smooth="yes"/>
      <point x="305" y="344" type="line"/>
      <point x="97" y="75" type="line" smooth="yes"/>
      <point x="80" y="53"/>
      <point x="67" y="38"/>
      <point x="7" y="26" type="curve"/>
      <point x="10" y="-3" type="line"/>
      <point x="52" y="-1" smooth="yes"/>
      <point x="74" y="0" smooth="yes"/>
      <point x="124" y="0" type="curve" smooth="yes" name="hr01"/>
      <point x="174" y="0"/>
      <point x="215" y="-1"/>
      <point x="257" y="-3" type="curve" name="hr02"/>
      <point x="260" y="26" type="line"/>
      <point x="208" y="37" smooth="yes"/>
      <point x="173" y="48" smooth="yes"/>
      <point x="173" y="62" type="curve" smooth="yes"/>
      <point x="173" y="71"/>
      <point x="254" y="175"/>
      <point x="343" y="293" type="curve"/>
      <point x="432" y="167" smooth="yes"/>
      <point x="505" y="72" smooth="yes"/>
      <point x="505" y="63" type="curve" smooth="yes"/>
      <point x="505" y="45"/>
      <point x="469" y="37"/>
      <point x="416" y="26" type="curve"/>
      <point x="419" y="-3" type="line"/>
      <point x="461" y="-1" smooth="yes"/>
      <point x="510" y="0" smooth="yes"/>
      <point x="560" y="0" type="curve" smooth="yes" name="hr03"/>
      <point x="610" y="0"/>
      <point x="651" y="-1"/>
      <point x="693" y="-3" type="curve" name="hr04"/>
      <point x="696" y="26" type="line"/>
      <point x="636" y="38" smooth="yes"/>
      <point x="626" y="49" smooth="yes"/>
      <point x="611" y="69" type="curve" smooth="yes"/>
      <point x="403" y="358" type="line"/>
      <point x="598" y="610" type="line" smooth="yes"/>
      <point x="615" y="632"/>
      <point x="628" y="647"/>
      <point x="688" y="659" type="curve"/>
      <point x="685" y="688" type="line"/>
      <point x="643" y="686" smooth="yes"/>
      <point x="621" y="685" smooth="yes"/>
      <point x="571" y="685" type="curve" smooth="yes"/>
      <point x="521" y="685"/>
      <point x="480" y="686"/>
      <point x="438" y="688" type="curve"/>
      <point x="435" y="659" type="line"/>
      <point x="487" y="648" smooth="yes"/>
      <point x="522" y="637" smooth="yes"/>
      <point x="522" y="623" type="curve" smooth="yes"/>
      <point x="522" y="614"/>
      <point x="455" y="527"/>
    </contour>
  </outline>
</glyph>
<glyph name="Y" format="1">
  <advance width="641"/>
  <unicode hex="0059"/>
  <outline>
    <contour>
      <point x="336" y="331" type="curve"/>
      <point x="189" y="615" type="line" smooth="yes"/>
      <point x="188" y="618" smooth="yes"/>
      <point x="187" y="620" smooth="yes"/>
      <point x="187" y="623" type="curve" smooth="yes"/>
      <point x="187" y="640"/>
      <point x="223" y="649"/>
      <point x="276" y="659" type="curve"/>
      <point x="273" y="688" type="line"/>
      <point x="231" y="686" smooth="yes"/>
      <point x="182" y="685" smooth="yes"/>
      <point x="132" y="685" type="curve" smooth="yes"/>
      <point x="82" y="685"/>
      <point x="41" y="686"/>
      <point x="-1" y="688" type="curve"/>
      <point x="-4" y="659" type="line"/>
      <point x="56" y="647" smooth="yes"/>
      <point x="69" y="638" smooth="yes"/>
      <point x="81" y="616" type="curve" smooth="yes"/>
      <point x="274" y="262" type="line"/>
      <point x="273" y="113"/>
      <point x="267" y="69"/>
      <point x="267" y="69" type="curve"/>
      <point x="264" y="44"/>
      <point x="238" y="38"/>
      <point x="178" y="26" type="curve"/>
      <point x="181" y="-3" type="line"/>
      <point x="223" y="-1" smooth="yes"/>
      <point x="272" y="0" smooth="yes"/>
      <point x="322" y="0" type="curve" smooth="yes" name="hr01"/>
      <point x="372" y="0"/>
      <point x="413" y="-1"/>
      <point x="455" y="-3" type="curve" name="hr02"/>
      <point x="458" y="26" type="line"/>
      <point x="398" y="38"/>
      <point x="376" y="44"/>
      <point x="373" y="69" type="curve"/>
      <point x="373" y="69"/>
      <point x="366" y="109"/>
      <point x="365" y="263" type="curve"/>
      <point x="558" y="610" type="line" smooth="yes"/>
      <point x="571" y="634"/>
      <point x="588" y="647"/>
      <point x="648" y="659" type="curve"/>
      <point x="645" y="688" type="line"/>
      <point x="603" y="686" smooth="yes"/>
      <point x="581" y="685" smooth="yes"/>
      <point x="531" y="685" type="curve" smooth="yes"/>
      <point x="481" y="685"/>
      <point x="440" y="686"/>
      <point x="398" y="688" type="curve"/>
      <point x="395" y="659" type="line"/>
      <point x="448" y="648" smooth="yes"/>
      <point x="487" y="639" smooth="yes"/>
      <point x="487" y="623" type="curve" smooth="yes"/>
      <point x="487" y="616" smooth="yes"/>
      <point x="485" y="609" smooth="yes"/>
    </contour>
  </outline>
</glyph>
<glyph name="bracketleft" format="1">
  <advance width="427"/>
  <unicode hex="005B"/>
  <outline>
    <contour>
      <point x="124" y="291" type="curve" smooth="yes" name="hr00"/>
      <point x="124" y="76"/>
      <point x="100" y="-134"/>
      <point x="100" y="-134" type="curve"/>
      <point x="121" y="-144" type="line"/>
      <point x="159" y="-134"/>
      <point x="253" y="-124"/>
      <point x="347" y="-124" type="curve"/>
      <point x="344" y="-88" type="line"/>
      <point x="192" y="-72" type="line"/>
      <point x="192" y="-72" smooth="yes"/>
      <point x="205" y="76" smooth="yes"/>
      <point x="205" y="291" type="curve" smooth="yes"/>
      <point x="205" y="506"/>
      <point x="192" y="635"/>
      <point x="192" y="635" type="curve"/>
      <point x="344" y="651" type="line"/>
      <point x="347" y="687" type="line"/>
      <point x="253" y="687"/>
      <point x="159" y="697"/>
      <point x="121" y="707" type="curve"/>
      <point x="100" y="697" type="line"/>
      <point x="100" y="697" smooth="yes"/>
      <point x="124" y="506" smooth="yes"/>
    </contour>
  </outline>
</glyph>
<glyph name="asciicircum" format="1">
  <advance width="523"/>
  <unicode hex="005E"/>
  <outline>
    <contour>
      <point x="235" y="664" type="line" name="hr00"/>
      <point x="36" y="265" type="line"/>
      <point x="105" y="265" type="line"/>
      <point x="261" y="601" type="line"/>
      <point x="417" y="265" type="line"/>
      <point x="486" y="265" type="line"/>
      <point x="286" y="664" type="line"/>
    </contour>
  </outline>
</glyph>
<glyph name="b" format="1">
  <advance width="536"/>
  <unicode hex="0062"/>
  <outline>
    <contour>
      <point x="248" y="44" type="curve" smooth="yes" name="hr00"/>
      <point x="223" y="44"/>
      <point x="195" y="49"/>
      <point x="164" y="61" type="curve"/>
      <point x="162" y="77"/>
      <point x="156" y="154"/>
      <point x="156" y="366" type="curve"/>
      <point x="179" y="380" smooth="yes"/>
      <point x="233" y="397" smooth="yes"/>
      <point x="280" y="397" type="curve" smooth="yes"/>
      <point x="378" y="397" smooth="yes"/>
      <point x="410" y="332" smooth="yes"/>
      <point x="410" y="237" type="curve" smooth="yes"/>
      <point x="410" y="142" smooth="yes"/>
      <point x="371" y="44" smooth="yes"/>
    </contour>
    <contour>
      <point x="265" y="-9" type="curve" smooth="yes"/>
      <point x="385" y="-9" smooth="yes"/>
      <point x="495" y="71" smooth="yes"/>
      <point x="495" y="243" type="curve" smooth="yes"/>
      <point x="495" y="396" smooth="yes"/>
      <point x="413" y="460" smooth="yes"/>
      <point x="319" y="460" type="curve" smooth="yes"/>
      <point x="265" y="460"/>
      <point x="207" y="440"/>
      <point x="157" y="402" type="curve"/>
      <point x="157" y="610"/>
      <point x="159" y="721"/>
      <point x="159" y="721" type="curve"/>
      <point x="140" y="730" type="line"/>
      <point x="106" y="721"/>
      <point x="44" y="712"/>
      <point x="8" y="712" type="curve"/>
      <point x="10" y="686" type="line"/>
      <point x="74" y="667" type="line"/>
      <point x="74" y="667" smooth="yes"/>
      <point x="82" y="627" smooth="yes"/>
      <point x="82" y="369" type="curve" smooth="yes"/>
      <point x="82" y="112"/>
      <point x="74" y="25"/>
      <point x="74" y="25" type="curve"/>
      <point x="122" y="6" smooth="yes"/>
      <point x="191" y="-9" smooth="yes"/>
    </contour>
  </outline>
</glyph>
<glyph name="d" format="1">
  <advance width="544"/>
  <unicode hex="0064"/>
  <outline>
    <contour>
      <point x="377" y="56" type="curve" name="hr00"/>
      <point x="388" y="9"/>
      <point x="418" y="-4"/>
      <point x="418" y="-4" type="curve"/>
      <point x="452" y="3"/>
      <point x="491" y="11"/>
      <point x="527" y="14" type="curve"/>
      <point x="530" y="43" type="line"/>
      <point x="496" y="45" smooth="yes"/>
      <point x="456" y="48" smooth="yes"/>
      <point x="454" y="85" type="curve" smooth="yes"/>
      <point x="452" y="120" smooth="yes"/>
      <point x="451" y="191" smooth="yes"/>
      <point x="451" y="352" type="curve" smooth="yes"/>
      <point x="451" y="596"/>
      <point x="453" y="721"/>
      <point x="453" y="721" type="curve"/>
      <point x="434" y="730" type="line"/>
      <point x="400" y="721"/>
      <point x="338" y="712"/>
      <point x="302" y="712" type="curve"/>
      <point x="304" y="686" type="line"/>
      <point x="368" y="667" type="line"/>
      <point x="368" y="667"/>
      <point x="375" y="634"/>
      <point x="376" y="426" type="curve"/>
      <point x="331" y="452" smooth="yes"/>
      <point x="298" y="461" smooth="yes"/>
      <point x="256" y="461" type="curve" smooth="yes"/>
      <point x="140" y="461" smooth="yes"/>
      <point x="39" y="376" smooth="yes"/>
      <point x="39" y="217" type="curve" smooth="yes"/>
      <point x="39" y="68" smooth="yes"/>
      <point x="123" y="-9" smooth="yes"/>
      <point x="223" y="-9" type="curve" smooth="yes"/>
      <point x="273" y="-9"/>
      <point x="330" y="12"/>
    </contour>
    <contour>
      <point x="376" y="382" type="curve"/>
      <point x="376" y="252"/>
      <point x="373" y="126"/>
      <point x="371" y="94" type="curve"/>
      <point x="349" y="78" smooth="yes"/>
      <point x="304" y="54" smooth="yes"/>
      <point x="258" y="54" type="curve" smooth="yes"/>
      <point x="169" y="54" smooth="yes"/>
      <point x="128" y="125" smooth="yes"/>
      <point x="128" y="219" type="curve" smooth="yes"/>
      <point x="128" y="312" smooth="yes"/>
      <point x="169" y="400" smooth="yes"/>
      <point x="282" y="400" type="curve" smooth="yes"/>
      <point x="313" y="400"/>
      <point x="341" y="394"/>
    </contour>
  </outline>
</glyph>
<glyph name="h" format="1">
  <advance width="558"/>
  <unicode hex="0068"/>
  <outline>
    <contour>
      <point x="166" y="362" type="curve"/>
      <point x="198" y="375" smooth="yes"/>
      <point x="268" y="398" smooth="yes"/>
      <point x="318" y="398" type="curve" smooth="yes"/>
      <point x="360" y="398" smooth="yes"/>
      <point x="393" y="383" smooth="yes"/>
      <point x="393" y="334" type="curve" smooth="yes"/>
      <point x="393" y="229" type="line" smooth="yes"/>
      <point x="393" y="83"/>
      <point x="385" y="48"/>
      <point x="385" y="48" type="curve"/>
      <point x="383" y="37"/>
      <point x="343" y="28"/>
      <point x="322" y="26" type="curve"/>
      <point x="319" y="-3" type="line"/>
      <point x="351" y="-1" smooth="yes"/>
      <point x="397" y="0" smooth="yes"/>
      <point x="431" y="0" type="curve" smooth="yes" name="hr01"/>
      <point x="465" y="0"/>
      <point x="507" y="-1"/>
      <point x="539" y="-3" type="curve" name="hr02"/>
      <point x="542" y="26" type="line"/>
      <point x="521" y="28"/>
      <point x="480" y="37"/>
      <point x="478" y="48" type="curve"/>
      <point x="478" y="48" smooth="yes"/>
      <point x="468" y="83" smooth="yes"/>
      <point x="468" y="229" type="curve" smooth="yes"/>
      <point x="468" y="365" type="line" smooth="yes"/>
      <point x="468" y="437" smooth="yes"/>
      <point x="423" y="460" smooth="yes"/>
      <point x="366" y="460" type="curve" smooth="yes"/>
      <point x="298" y="460"/>
      <point x="207" y="426"/>
      <point x="166" y="402" type="curve"/>
      <point x="166" y="604"/>
      <point x="168" y="721"/>
      <point x="168" y="721" type="curve"/>
      <point x="149" y="730" type="line"/>
      <point x="115" y="721"/>
      <point x="53" y="712"/>
      <point x="17" y="712" type="curve"/>
      <point x="19" y="686" type="line"/>
      <point x="83" y="667" type="line"/>
      <point x="83" y="667" smooth="yes"/>
      <point x="91" y="627" smooth="yes"/>
      <point x="91" y="369" type="curve" smooth="yes"/>
      <point x="91" y="112"/>
      <point x="84" y="48"/>
      <point x="84" y="48" type="curve"/>
      <point x="82" y="37"/>
      <point x="42" y="28"/>
      <point x="21" y="26" type="curve"/>
      <point x="18" y="-3" type="line"/>
      <point x="50" y="-1" smooth="yes"/>
      <point x="96" y="0" smooth="yes"/>
      <point x="130" y="0" type="curve" smooth="yes" name="hr03"/>
      <point x="164" y="0"/>
      <point x="206" y="-1"/>
      <point x="238" y="-3" type="curve" name="hr04"/>
      <point x="241" y="26" type="line"/>
      <point x="220" y="28"/>
      <point x="179" y="37"/>
      <point x="177" y="48" type="curve"/>
      <point x="176" y="50"/>
      <point x="166" y="99"/>
    </contour>
  </outline>
</glyph>
<glyph name="l" format="1">
  <advance width="272"/>
  <unicode hex="006C"/>
  <outline>
    <contour>
      <point x="173" y="352" type="curve" smooth="yes"/>
      <point x="173" y="596"/>
      <point x="175" y="721"/>
      <point x="175" y="721" type="curve"/>
      <point x="156" y="730" type="line"/>
      <point x="122" y="721"/>
      <point x="60" y="712"/>
      <point x="24" y="712" type="curve"/>
      <point x="26" y="686" type="line"/>
      <point x="90" y="667" type="line"/>
      <point x="90" y="667" smooth="yes"/>
      <point x="98" y="627" smooth="yes"/>
      <point x="98" y="370" type="curve" smooth="yes"/>
      <point x="98" y="112"/>
      <point x="91" y="48"/>
      <point x="91" y="48" type="curve"/>
      <point x="89" y="37"/>
      <point x="43" y="28"/>
      <point x="22" y="26" type="curve"/>
      <point x="19" y="-3" type="line"/>
      <point x="51" y="-1" smooth="yes"/>
      <point x="103" y="0" smooth="yes"/>
      <point x="137" y="0" type="curve" smooth="yes" name="hr01"/>
      <point x="171" y="0"/>
      <point x="219" y="-1"/>
      <point x="251" y="-3" type="curve" name="hr02"/>
      <point x="254" y="26" type="line"/>
      <point x="233" y="27" smooth="yes"/>
      <point x="186" y="37" smooth="yes"/>
      <point x="184" y="48" type="curve" smooth="yes"/>
      <point x="182" y="60" smooth="yes"/>
      <point x="173" y="113" smooth="yes"/>
    </contour>
  </outline>
</glyph>
<glyph name="m" format="1">
  <advance width="838"/>
  <unicode hex="006D"/>
  <outline>
    <contour>
      <point x="459" y="365" type="line" smooth="yes"/>
      <point x="459" y="437" smooth="yes"/>
      <point x="414" y="460" smooth="yes"/>
      <point x="357" y="460" type="curve" smooth="yes"/>
      <point x="293" y="460"/>
      <point x="212" y="426"/>
      <point x="173" y="402" type="curve"/>
      <point x="173" y="425"/>
      <point x="174" y="450"/>
      <point x="174" y="450" type="curve"/>
      <point x="155" y="459" type="line"/>
      <point x="121" y="450"/>
      <point x="59" y="441"/>
      <point x="23" y="441" type="curve"/>
      <point x="25" y="415" type="line"/>
      <point x="89" y="396" type="line"/>
      <point x="89" y="396" smooth="yes"/>
      <point x="97" y="375" smooth="yes"/>
      <point x="97" y="229" type="curve" smooth="yes"/>
      <point x="97" y="83"/>
      <point x="90" y="48"/>
      <point x="90" y="48" type="curve"/>
      <point x="88" y="37"/>
      <point x="48" y="28"/>
      <point x="27" y="26" type="curve"/>
      <point x="24" y="-3" type="line"/>
      <point x="56" y="-1" smooth="yes"/>
      <point x="102" y="0" smooth="yes"/>
      <point x="136" y="0" type="curve" smooth="yes" name="hr01"/>
      <point x="170" y="0"/>
      <point x="212" y="-1"/>
      <point x="244" y="-3" type="curve" name="hr02"/>
      <point x="247" y="26" type="line"/>
      <point x="226" y="28"/>
      <point x="185" y="37"/>
      <point x="183" y="48" type="curve"/>
      <point x="183" y="48" smooth="yes"/>
      <point x="172" y="83" smooth="yes"/>
      <point x="172" y="229" type="curve" smooth="yes"/>
      <point x="172" y="362" type="line"/>
      <point x="202" y="375" smooth="yes"/>
      <point x="262" y="398" smooth="yes"/>
      <point x="309" y="398" type="curve" smooth="yes"/>
      <point x="351" y="398" smooth="yes"/>
      <point x="384" y="383" smooth="yes"/>
      <point x="384" y="334" type="curve" smooth="yes"/>
      <point x="384" y="229" type="line" smooth="yes"/>
      <point x="384" y="83"/>
      <point x="376" y="48"/>
      <point x="376" y="48" type="curve"/>
      <point x="374" y="37"/>
      <point x="334" y="28"/>
      <point x="313" y="26" type="curve"/>
      <point x="310" y="-3" type="line"/>
      <point x="342" y="-1" smooth="yes"/>
      <point x="388" y="0" smooth="yes"/>
      <point x="422" y="0" type="curve" smooth="yes" name="hr03"/>
      <point x="456" y="0"/>
      <point x="498" y="-1"/>
      <point x="530" y="-3" type="curve" name="hr04"/>
      <point x="533" y="26" type="line"/>
      <point x="512" y="28"/>
      <point x="471" y="37"/>
      <point x="469" y="48" type="curve"/>
      <point x="469" y="48" smooth="yes"/>
      <point x="459" y="83" smooth="yes"/>
      <point x="459" y="229" type="curve" smooth="yes"/>
    </contour>
    <contour>
      <point x="453" y="362" type="line"/>
      <point x="484" y="375" smooth="yes"/>
      <point x="548" y="398" smooth="yes"/>
      <point x="597" y="398" type="curve" smooth="yes"/>
      <point x="639" y="398" smooth="yes"/>
      <point x="672" y="383" smooth="yes"/>
      <point x="672" y="334" type="curve" smooth="yes"/>
      <point x="672" y="229" type="line" smooth="yes"/>
      <point x="672" y="83"/>
      <point x="664" y="48"/>
      <point x="664" y="48" type="curve"/>
      <point x="662" y="37"/>
      <point x="622" y="28"/>
      <point x="601" y="26" type="curve"/>
      <point x="598" y="-3" type="line"/>
      <point x="630" y="-1" smooth="yes"/>
      <point x="676" y="0" smooth="yes"/>
      <point x="710" y="0" type="curve" smooth="yes" name="hr05"/>
      <point x="744" y="0"/>
      <point x="786" y="-1"/>
      <point x="818" y="-3" type="curve" name="hr06"/>
      <point x="821" y="26" type="line"/>
      <point x="800" y="28"/>
      <point x="759" y="37"/>
      <point x="757" y="48" type="curve"/>
      <point x="757" y="48" smooth="yes"/>
      <point x="747" y="83" smooth="yes"/>
      <point x="747" y="229" type="curve" smooth="yes"/>
      <point x="747" y="365" type="line" smooth="yes"/>
      <point x="747" y="437" smooth="yes"/>
      <point x="702" y="460" smooth="yes"/>
      <point x="645" y="460" type="curve" smooth="yes"/>
      <point x="579" y="460"/>
      <point x="494" y="426"/>
      <point x="454" y="402" type="curve"/>
    </contour>
  </outline>
</glyph>
<glyph name="u" format="1">
  <advance width="550"/>
  <unicode hex="0075"/>
  <outline>
    <contour>
      <point x="458" y="85" type="curve" name="hr00"/>
      <point x="458" y="85" smooth="yes"/>
      <point x="455" y="118" smooth="yes"/>
      <point x="455" y="202" type="curve" smooth="yes"/>
      <point x="455" y="375"/>
      <point x="458" y="450"/>
      <point x="458" y="450" type="curve"/>
      <point x="439" y="459" type="line"/>
      <point x="405" y="450"/>
      <point x="343" y="441"/>
      <point x="307" y="441" type="curve"/>
      <point x="309" y="415" type="line"/>
      <point x="372" y="396" type="line"/>
      <point x="372" y="396" smooth="yes"/>
      <point x="380" y="375" smooth="yes"/>
      <point x="380" y="229" type="curve" smooth="yes"/>
      <point x="380" y="152"/>
      <point x="378" y="122"/>
      <point x="376" y="95" type="curve"/>
      <point x="348" y="76" smooth="yes"/>
      <point x="290" y="53" smooth="yes"/>
      <point x="241" y="53" type="curve" smooth="yes"/>
      <point x="187" y="53" smooth="yes"/>
      <point x="160" y="70" smooth="yes"/>
      <point x="160" y="120" type="curve" smooth="yes"/>
      <point x="160" y="268"/>
      <point x="163" y="450"/>
      <point x="163" y="450" type="curve"/>
      <point x="144" y="459" type="line"/>
      <point x="110" y="450"/>
      <point x="53" y="441"/>
      <point x="17" y="441" type="curve"/>
      <point x="19" y="415" type="line"/>
      <point x="78" y="396" type="line"/>
      <point x="78" y="396" smooth="yes"/>
      <point x="85" y="375" smooth="yes"/>
      <point x="85" y="229" type="curve" smooth="yes"/>
      <point x="85" y="95" type="line" smooth="yes"/>
      <point x="85" y="16" smooth="yes"/>
      <point x="128" y="-9" smooth="yes"/>
      <point x="187" y="-9" type="curve" smooth="yes"/>
      <point x="254" y="-9"/>
      <point x="328" y="20"/>
      <point x="381" y="56" type="curve"/>
      <point x="392" y="9"/>
      <point x="422" y="-4"/>
      <point x="422" y="-4" type="curve"/>
      <point x="456" y="3"/>
      <point x="495" y="11"/>
      <point x="531" y="14" type="curve"/>
      <point x="534" y="43" type="line"/>
      <point x="500" y="45"/>
      <point x="459" y="48"/>
    </contour>
  </outline>
</glyph>
<glyph name="w" format="1">
  <advance width="725"/>
  <unicode hex="0077"/>
  <outline>
    <contour>
      <point x="604" y="396" type="curve" smooth="yes" name="hr00"/>
      <point x="604" y="385"/>
      <point x="549" y="178"/>
      <point x="522" y="66" type="curve"/>
      <point x="390" y="450" type="line"/>
      <point x="368" y="450" type="line"/>
      <point x="232" y="66" type="line"/>
      <point x="205" y="177" smooth="yes"/>
      <point x="153" y="385" smooth="yes"/>
      <point x="153" y="393" type="curve" smooth="yes"/>
      <point x="153" y="403"/>
      <point x="169" y="420"/>
      <point x="220" y="427" type="curve"/>
      <point x="217" y="456" type="line"/>
      <point x="217" y="456" smooth="yes"/>
      <point x="143" y="453" smooth="yes"/>
      <point x="105" y="453" type="curve" smooth="yes"/>
      <point x="68" y="453"/>
      <point x="3" y="456"/>
      <point x="3" y="456" type="curve"/>
      <point x="6" y="427" type="line"/>
      <point x="50" y="420" smooth="yes"/>
      <point x="63" y="401" smooth="yes"/>
      <point x="67" y="386" type="curve" smooth="yes"/>
      <point x="179" y="-9" type="line"/>
      <point x="257" y="0" type="line"/>
      <point x="360" y="279" type="line"/>
      <point x="470" y="-9" type="line"/>
      <point x="549" y="0" type="line"/>
      <point x="660" y="390" type="line" smooth="yes"/>
      <point x="665" y="409"/>
      <point x="680" y="421"/>
      <point x="723" y="427" type="curve"/>
      <point x="720" y="456" type="line"/>
      <point x="720" y="456" smooth="yes"/>
      <point x="655" y="453" smooth="yes"/>
      <point x="618" y="453" type="curve" smooth="yes"/>
      <point x="580" y="453"/>
      <point x="538" y="456"/>
      <point x="538" y="456" type="curve"/>
      <point x="541" y="427" type="line"/>
      <point x="579" y="422" smooth="yes"/>
      <point x="604" y="411" smooth="yes"/>
    </contour>
  </outline>
</glyph>
<glyph name="x" format="1">
  <advance width="496"/>
  <unicode hex="0078"/>
  <outline>
    <contour>
      <point x="234" y="183" type="line"/>
      <point x="318" y="68" type="line" smooth="yes"/>
      <point x="327" y="56" smooth="yes"/>
      <point x="330" y="50" smooth="yes"/>
      <point x="330" y="47" type="curve" smooth="yes"/>
      <point x="330" y="38"/>
      <point x="320" y="30"/>
      <point x="277" y="26" type="curve"/>
      <point x="274" y="-3" type="line"/>
      <point x="274" y="-3" smooth="yes"/>
      <point x="332" y="0" smooth="yes"/>
      <point x="370" y="0" type="curve" smooth="yes" name="hr01"/>
      <point x="407" y="0"/>
      <point x="487" y="-3"/>
      <point x="487" y="-3" type="curve" name="hr02"/>
      <point x="490" y="26" type="line"/>
      <point x="446" y="30" smooth="yes"/>
      <point x="431" y="44" smooth="yes"/>
      <point x="422" y="57" type="curve" smooth="yes"/>
      <point x="291" y="236" type="line"/>
      <point x="412" y="393" type="line" smooth="yes"/>
      <point x="424" y="408"/>
      <point x="448" y="425"/>
      <point x="473" y="427" type="curve"/>
      <point x="470" y="456" type="line"/>
      <point x="470" y="456" smooth="yes"/>
      <point x="425" y="453" smooth="yes"/>
      <point x="388" y="453" type="curve" smooth="yes"/>
      <point x="350" y="453"/>
      <point x="301" y="456"/>
      <point x="301" y="456" type="curve"/>
      <point x="304" y="427" type="line"/>
      <point x="340" y="423" smooth="yes"/>
      <point x="352" y="418" smooth="yes"/>
      <point x="352" y="406" type="curve" smooth="yes"/>
      <point x="352" y="397" smooth="yes"/>
      <point x="346" y="387" smooth="yes"/>
      <point x="338" y="376" type="curve" smooth="yes"/>
      <point x="263" y="275" type="line"/>
      <point x="189" y="377" type="line" smooth="yes"/>
      <point x="178" y="392" smooth="yes"/>
      <point x="173" y="403" smooth="yes"/>
      <point x="173" y="407" type="curve" smooth="yes"/>
      <point x="173" y="416"/>
      <point x="184" y="423"/>
      <point x="229" y="427" type="curve"/>
      <point x="226" y="456" type="line"/>
      <point x="226" y="456" smooth="yes"/>
      <point x="179" y="453" smooth="yes"/>
      <point x="141" y="453" type="curve" smooth="yes"/>
      <point x="104" y="453"/>
      <point x="24" y="456"/>
      <point x="24" y="456" type="curve"/>
      <point x="27" y="427" type="line"/>
      <point x="66" y="423" smooth="yes"/>
      <point x="76" y="412" smooth="yes"/>
      <point x="85" y="399" type="curve" smooth="yes"/>
      <point x="207" y="222" type="line"/>
      <point x="73" y="54" type="line" smooth="yes"/>
      <point x="60" y="38"/>
      <point x="48" y="30"/>
      <point x="10" y="26" type="curve"/>
      <point x="7" y="-3" type="line"/>
      <point x="7" y="-3" smooth="yes"/>
      <point x="67" y="0" smooth="yes"/>
      <point x="104" y="0" type="curve" smooth="yes" name="hr03"/>
      <point x="142" y="0"/>
      <point x="188" y="-3"/>
      <point x="188" y="-3" type="curve" name="hr04"/>
      <point x="194" y="26" type="line"/>
      <point x="149" y="30" smooth="yes"/>
      <point x="132" y="36" smooth="yes"/>
      <point x="132" y="44" type="curve" smooth="yes"/>
      <point x="132" y="49" smooth="yes"/>
      <point x="137" y="56" smooth="yes"/>
      <point x="148" y="70" type="curve" smooth="yes"/>
    </contour>
  </outline>
</glyph>
<glyph name="bar" format="1">
  <advance width="289"/>
  <unicode hex="007C"/>
  <outline>
    <contour>
      <point x="112" y="-140" type="line" name="hr00"/>
      <point x="177" y="-140" type="line"/>
      <point x="177" y="701" type="line"/>
      <point x="112" y="701" type="line"/>
    </contour>
  </outline>
</glyph>
<glyph name="asciitilde" format="1">
  <advance width="523"/>
  <unicode hex="007E"/>
  <outline>
    <contour>
      <point x="468" y="334" type="line" name="hr00"/>
      <point x="448" y="318" smooth="yes"/>
      <point x="421" y="302" smooth="yes"/>
      <point x="382" y="302" type="curve" smooth="yes"/>
      <point x="302" y="302" smooth="yes"/>
      <point x="223" y="367" smooth="yes"/>
      <point x="143" y="367" type="curve" smooth="yes"/>
      <point x="103" y="367"/>
      <point x="65" y="351"/>
      <point x="25" y="305" type="curve"/>
      <point x="56" y="274" type="line"/>
      <point x="75" y="290" smooth="yes"/>
      <point x="103" y="306" smooth="yes"/>
      <point x="142" y="306" type="curve" smooth="yes"/>
      <point x="222" y="306" smooth="yes"/>
      <point x="301" y="241" smooth="yes"/>
      <point x="381" y="241" type="curve" smooth="yes"/>
      <point x="421" y="241"/>
      <point x="459" y="257"/>
      <point x="499" y="303" type="curve"/>
    </contour>
  </outline>
</glyph>
<glyph name="cent" format="1">
  <advance width="523"/>
  <unicode hex="00A2"/>
  <outline>
    <contour>
      <point x="257" y="553" type="line" name="hr00"/>
      <point x="123" y="540" smooth="yes"/>
      <point x="53" y="422" smooth="yes"/>
      <point x="53" y="308" type="curve" smooth="yes"/>
      <point x="53" y="213"/>
      <point x="101" y="122"/>
      <point x="200" y="94" type="curve"/>
      <point x="187" y="-9" type="line"/>
      <point x="232" y="-9" type="line"/>
      <point x="244" y="87" type="line"/>
      <point x="251" y="86" smooth="yes"/>
      <point x="258" y="86" smooth="yes"/>
      <point x="265" y="86" type="curve" smooth="yes"/>
      <point x="339" y="86"/>
      <point x="395" y="112"/>
      <point x="440" y="148" type="curve"/>
      <point x="426" y="177" type="line"/>
      <point x="380" y="156" smooth="yes"/>
      <point x="337" y="147" smooth="yes"/>
      <point x="301" y="147" type="curve" smooth="yes"/>
      <point x="283" y="147"/>
      <point x="267" y="149"/>
      <point x="252" y="153" type="curve"/>
      <point x="296" y="509" type="line"/>
      <point x="345" y="505"/>
      <point x="391" y="480"/>
      <point x="414" y="398" type="curve"/>
      <point x="438" y="409" type="line"/>
      <point x="433" y="439" smooth="yes"/>
      <point x="427" y="497" smooth="yes"/>
      <point x="427" y="533" type="curve" smooth="yes"/>
      <point x="427" y="546" type="line"/>
      <point x="412" y="543" smooth="yes"/>
      <point x="399" y="541" smooth="yes"/>
      <point x="388" y="541" type="curve" smooth="yes"/>
      <point x="357" y="541"/>
      <point x="337" y="550"/>
      <point x="302" y="553" type="curve"/>
      <point x="313" y="641" type="line"/>
      <point x="268" y="641" type="line"/>
    </contour>
    <contour>
      <point x="139" y="328" type="curve"/>
      <point x="139" y="407"/>
      <point x="166" y="491"/>
      <point x="251" y="507" type="curve"/>
      <point x="209" y="172" type="line"/>
      <point x="160" y="206" smooth="yes"/>
      <point x="139" y="267" smooth="yes"/>
    </contour>
  </outline>
</glyph>
<glyph name="currency" format="1">
  <advance width="523"/>
  <unicode hex="00A4"/>
  <outline>
    <contour>
      <point x="33" y="148" type="line" name="hr00"/>
      <point x="89" y="97" type="line"/>
      <point x="151" y="177" type="line"/>
      <point x="182" y="154" smooth="yes"/>
      <point x="219" y="141" smooth="yes"/>
      <point x="261" y="141" type="curve" smooth="yes"/>
      <point x="301" y="141"/>
      <point x="338" y="154"/>
      <point x="370" y="177" type="curve"/>
      <point x="436" y="95" type="line"/>
      <point x="487" y="151" type="line"/>
      <point x="407" y="213" type="line"/>
      <point x="428" y="244" smooth="yes"/>
      <point x="443" y="281" smooth="yes"/>
      <point x="443" y="323" type="curve" smooth="yes"/>
      <point x="443" y="363"/>
      <point x="428" y="400"/>
      <point x="407" y="431" type="curve"/>
      <point x="489" y="496" type="line"/>
      <point x="434" y="549" type="line"/>
      <point x="370" y="468" type="line"/>
      <point x="338" y="490" smooth="yes"/>
      <point x="301" y="504" smooth="yes"/>
      <point x="261" y="504" type="curve" smooth="yes"/>
      <point x="219" y="504"/>
      <point x="183" y="490"/>
      <point x="152" y="468" type="curve"/>
      <point x="86" y="551" type="line"/>
      <point x="35" y="495" type="line"/>
      <point x="115" y="432" type="line"/>
      <point x="92" y="400" smooth="yes"/>
      <point x="79" y="363" smooth="yes"/>
      <point x="79" y="323" type="curve" smooth="yes"/>
      <point x="79" y="281"/>
      <point x="92" y="244"/>
      <point x="115" y="213" type="curve"/>
    </contour>
    <contour>
      <point x="146" y="323" type="curve"/>
      <point x="146" y="387" smooth="yes"/>
      <point x="195" y="438" smooth="yes"/>
      <point x="261" y="438" type="curve" smooth="yes"/>
      <point x="327" y="438" smooth="yes"/>
      <point x="376" y="387" smooth="yes"/>
      <point x="376" y="323" type="curve" smooth="yes"/>
      <point x="376" y="257" smooth="yes"/>
      <point x="327" y="207" smooth="yes"/>
      <point x="261" y="207" type="curve" smooth="yes"/>
      <point x="195" y="207"/>
      <point x="146" y="257"/>
    </contour>
  </outline>
</glyph>
<glyph name="section" format="1">
  <advance width="501"/>
  <unicode hex="00A7"/>
  <outline>
    <contour>
      <point x="474" y="707" type="curve" name="hr00"/>
      <point x="203" y="658" smooth="yes"/>
      <point x="164" y="462" smooth="yes"/>
      <point x="164" y="266" type="curve" smooth="yes"/>
      <point x="164" y="35"/>
      <point x="164" y="-31"/>
      <point x="72" y="-79" type="curve"/>
      <point x="80" y="-80" smooth="yes"/>
      <point x="88" y="-81" smooth="yes"/>
      <point x="96" y="-81" type="curve" smooth="yes"/>
      <point x="214" y="-81"/>
      <point x="226" y="37"/>
      <point x="226" y="174" type="curve"/>
      <point x="226" y="283" type="line"/>
      <point x="226" y="444" smooth="yes"/>
      <point x="250" y="594" smooth="yes"/>
      <point x="408" y="594" type="curve" smooth="yes"/>
      <point x="425" y="594"/>
      <point x="443" y="591"/>
      <point x="461" y="584" type="curve"/>
      <point x="481" y="597" smooth="yes"/>
      <point x="494" y="626" smooth="yes"/>
      <point x="494" y="655" type="curve" smooth="yes"/>
      <point x="494" y="674"/>
      <point x="488" y="693"/>
    </contour>
    <contour>
      <point x="27" y="-229" type="curve"/>
      <point x="298" y="-180" smooth="yes"/>
      <point x="337" y="16" smooth="yes"/>
      <point x="337" y="212" type="curve" smooth="yes"/>
      <point x="337" y="443"/>
      <point x="337" y="509"/>
      <point x="429" y="557" type="curve"/>
      <point x="421" y="558" smooth="yes"/>
      <point x="413" y="559" smooth="yes"/>
      <point x="405" y="559" type="curve" smooth="yes"/>
      <point x="287" y="559" smooth="yes"/>
      <point x="275" y="441" smooth="yes"/>
      <point x="275" y="304" type="curve" smooth="yes"/>
      <point x="275" y="195" type="line" smooth="yes"/>
      <point x="275" y="34" smooth="yes"/>
      <point x="251" y="-116" smooth="yes"/>
      <point x="93" y="-116" type="curve" smooth="yes"/>
      <point x="76" y="-116"/>
      <point x="58" y="-113"/>
      <point x="40" y="-106" type="curve"/>
      <point x="20" y="-119" smooth="yes"/>
      <point x="7" y="-148" smooth="yes"/>
      <point x="7" y="-177" type="curve" smooth="yes"/>
      <point x="7" y="-196"/>
      <point x="13" y="-215"/>
    </contour>
  </outline>
</glyph>
<glyph name="dieresis" format="1">
  <advance width="464"/>
  <unicode hex="00A8"/>
  <outline>
    <contour>
      <point x="320" y="563" type="curve" smooth="yes" name="hr00"/>
      <point x="349" y="563" smooth="yes"/>
      <point x="372" y="586" smooth="yes"/>
      <point x="372" y="617" type="curve" smooth="yes"/>
      <point x="372" y="646" smooth="yes"/>
      <point x="349" y="669" smooth="yes"/>
      <point x="320" y="669" type="curve" smooth="yes"/>
      <point x="291" y="669" smooth="yes"/>
      <point x="268" y="646" smooth="yes"/>
      <point x="268" y="617" type="curve" smooth="yes"/>
      <point x="268" y="586" smooth="yes"/>
      <point x="291" y="563" smooth="yes"/>
    </contour>
    <contour>
      <point x="140" y="563" type="curve" smooth="yes"/>
      <point x="169" y="563" smooth="yes"/>
      <point x="192" y="586" smooth="yes"/>
      <point x="192" y="617" type="curve" smooth="yes"/>
      <point x="192" y="646" smooth="yes"/>
      <point x="169" y="669" smooth="yes"/>
      <point x="140" y="669" type="curve" smooth="yes"/>
      <point x="111" y="669" smooth="yes"/>
      <point x="88" y="646" smooth="yes"/>
      <point x="88" y="617" type="curve" smooth="yes"/>
      <point x="88" y="586" smooth="yes"/>
      <point x="111" y="563" smooth="yes"/>
    </contour>
  </outline>
</glyph>
<glyph name="copyright" format="1">
  <advance width="600"/>
  <unicode hex="00A9"/>
  <outline>
    <contour>
      <point x="302" y="339" type="curve" name="hr00"/>
      <point x="217" y="339" smooth="yes"/>
      <point x="186" y="416" smooth="yes"/>
      <point x="186" y="487" type="curve" smooth="yes"/>
      <point x="186" y="583" smooth="yes"/>
      <point x="242" y="627" smooth="yes"/>
      <point x="299" y="627" type="curve" smooth="yes"/>
      <point x="340" y="627"/>
      <point x="381" y="611"/>
      <point x="396" y="561" type="curve"/>
      <point x="417" y="570" type="line"/>
      <point x="414" y="587"/>
      <point x="412" y="619"/>
      <point x="412" y="649" type="curve"/>
      <point x="402" y="645" smooth="yes"/>
      <point x="391" y="644" smooth="yes"/>
      <point x="381" y="644" type="curve" smooth="yes"/>
      <point x="356" y="644" smooth="yes"/>
      <point x="328" y="651" smooth="yes"/>
      <point x="306" y="651" type="curve" smooth="yes"/>
      <point x="177" y="651" smooth="yes"/>
      <point x="126" y="560" smooth="yes"/>
      <point x="126" y="469" type="curve" smooth="yes"/>
      <point x="126" y="360" smooth="yes"/>
      <point x="204" y="312" smooth="yes"/>
      <point x="300" y="312" type="curve" smooth="yes"/>
      <point x="337" y="312"/>
      <point x="379" y="321"/>
      <point x="420" y="336" type="curve"/>
      <point x="422" y="358"/>
      <point x="425" y="380"/>
      <point x="431" y="399" type="curve"/>
      <point x="409" y="408" type="line"/>
      <point x="396" y="367" smooth="yes"/>
      <point x="359" y="339" smooth="yes"/>
    </contour>
    <contour>
      <point x="55" y="479" type="curve"/>
      <point x="55" y="613" smooth="yes"/>
      <point x="165" y="723" smooth="yes"/>
      <point x="299" y="723" type="curve" smooth="yes"/>
      <point x="434" y="723" smooth="yes"/>
      <point x="543" y="613" smooth="yes"/>
      <point x="543" y="479" type="curve" smooth="yes"/>
      <point x="543" y="344" smooth="yes"/>
      <point x="434" y="235" smooth="yes"/>
      <point x="299" y="235" type="curve" smooth="yes"/>
      <point x="165" y="235" smooth="yes"/>
      <point x="55" y="344" smooth="yes"/>
    </contour>
    <contour>
      <point x="18" y="479" type="curve"/>
      <point x="18" y="323" smooth="yes"/>
      <point x="144" y="197" smooth="yes"/>
      <point x="299" y="197" type="curve" smooth="yes"/>
      <point x="455" y="197" smooth="yes"/>
      <point x="581" y="323" smooth="yes"/>
      <point x="581" y="479" type="curve" smooth="yes"/>
      <point x="581" y="634" smooth="yes"/>
      <point x="455" y="760" smooth="yes"/>
      <point x="299" y="760" type="curve" smooth="yes"/>
      <point x="144" y="760" smooth="yes"/>
      <point x="18" y="634" smooth="yes"/>
    </contour>
  </outline>
</glyph>
<glyph name="ordfeminine" format="1">
  <advance width="286"/>
  <unicode hex="00AA"/>
  <outline>
    <contour>
      <point x="37" y="317" type="curve"/>
      <point x="12" y="278" type="line"/>
      <point x="16" y="265" type="line"/>
      <point x="69" y="269" smooth="yes"/>
      <point x="92" y="269" smooth="yes"/>
      <point x="145" y="269" type="curve" smooth="yes" name="hr01"/>
      <point x="192" y="269"/>
      <point x="206" y="269"/>
      <point x="253" y="266" type="curve"/>
      <point x="278" y="305" type="line"/>
      <point x="274" y="317" type="line" name="hr02"/>
      <point x="221" y="313" smooth="yes"/>
      <point x="199" y="313" smooth="yes"/>
      <point x="145" y="313" type="curve" smooth="yes" name="hr03"/>
      <point x="98" y="313"/>
      <point x="84" y="313"/>
    </contour>
    <component  base="asuperior"/>
  </outline>
</glyph>
<glyph name="plusminus" format="1">
  <advance width="523"/>
  <unicode hex="00B1"/>
  <outline>
    <contour>
      <point x="231" y="541" type="line" name="hr00"/>
      <point x="231" y="334" type="line"/>
      <point x="24" y="334" type="line"/>
      <point x="24" y="273" type="line"/>
      <point x="231" y="273" type="line"/>
      <point x="231" y="66" type="line"/>
      <point x="292" y="66" type="line"/>
      <point x="292" y="273" type="line"/>
      <point x="499" y="273" type="line"/>
      <point x="499" y="334" type="line"/>
      <point x="292" y="334" type="line"/>
      <point x="292" y="541" type="line"/>
    </contour>
    <contour>
      <point x="24" y="-60" type="line"/>
      <point x="499" y="-60" type="line"/>
      <point x="499" y="1" type="line"/>
      <point x="24" y="1" type="line"/>
    </contour>
  </outline>
</glyph>
<glyph name="acute" format="1">
  <advance width="285"/>
  <unicode hex="00B4"/>
  <outline>
    <contour>
      <point x="273" y="680" type="line" name="hr00"/>
      <point x="270" y="703"/>
      <point x="237" y="722"/>
      <point x="204" y="722" type="curve"/>
      <point x="70" y="523" type="line"/>
      <point x="100" y="518" type="line"/>
    </contour>
  </outline>
</glyph>
<glyph name="paragraph" format="1">
  <advance width="524"/>
  <unicode hex="00B6"/>
  <outline>
    <contour>
      <point x="186" y="-229" type="curve" name="hr00"/>
      <point x="283" y="-229" smooth="yes"/>
      <point x="428" y="-127" smooth="yes"/>
      <point x="428" y="121" type="curve" smooth="yes"/>
      <point x="428" y="211" smooth="yes"/>
      <point x="394" y="387" smooth="yes"/>
      <point x="394" y="471" type="curve" smooth="yes"/>
      <point x="394" y="528"/>
      <point x="416" y="557"/>
      <point x="467" y="557" type="curve"/>
      <point x="460" y="594" type="line"/>
      <point x="226" y="594" smooth="yes"/>
      <point x="50" y="512" smooth="yes"/>
      <point x="50" y="350" type="curve" smooth="yes"/>
      <point x="50" y="235" smooth="yes"/>
      <point x="132" y="172" smooth="yes"/>
      <point x="233" y="172" type="curve" smooth="yes"/>
      <point x="273" y="172"/>
      <point x="316" y="183"/>
      <point x="358" y="204" type="curve"/>
      <point x="362" y="176" smooth="yes"/>
      <point x="363" y="150" smooth="yes"/>
      <point x="363" y="125" type="curve" smooth="yes"/>
      <point x="363" y="-46" smooth="yes"/>
      <point x="309" y="-116" smooth="yes"/>
      <point x="234" y="-116" type="curve" smooth="yes"/>
      <point x="217" y="-116"/>
      <point x="199" y="-113"/>
      <point x="180" y="-106" type="curve"/>
      <point x="170" y="-119" smooth="yes"/>
      <point x="160" y="-153" smooth="yes"/>
      <point x="160" y="-172" type="curve" smooth="yes"/>
      <point x="160" y="-193"/>
      <point x="167" y="-214"/>
    </contour>
  </outline>
</glyph>
<glyph name="periodcentered" format="1">
  <advance width="165"/>
  <unicode hex="00B7"/>
  <outline>
    <contour>
      <point x="82" y="209" type="curve" smooth="yes" name="hr00"/>
      <point x="111" y="209" smooth="yes"/>
      <point x="135" y="231" smooth="yes"/>
      <point x="135" y="264" type="curve" smooth="yes"/>
      <point x="135" y="294" smooth="yes"/>
      <point x="111" y="316" smooth="yes"/>
      <point x="82" y="316" type="curve" smooth="yes"/>
      <point x="53" y="316" smooth="yes"/>
      <point x="30" y="294" smooth="yes"/>
      <point x="30" y="264" type="curve" smooth="yes"/>
      <point x="30" y="231" smooth="yes"/>
      <point x="53" y="209" smooth="yes"/>
    </contour>
  </outline>
</glyph>
<glyph name="cedilla" format="1">
  <advance width="443"/>
  <unicode hex="00B8"/>
  <outline>
    <contour>
      <point x="221" y="11" type="line" name="hr00"/>
      <point x="199" y="-16" smooth="yes"/>
      <point x="191" y="-37" smooth="yes"/>
      <point x="191" y="-53" type="curve" smooth="yes"/>
      <point x="191" y="-100" smooth="yes"/>
      <point x="258" y="-112" smooth="yes"/>
      <point x="258" y="-145" type="curve" smooth="yes"/>
      <point x="258" y="-164"/>
      <point x="222" y="-177"/>
      <point x="161" y="-180" type="curve"/>
      <point x="148" y="-191" smooth="yes"/>
      <point x="138" y="-209" smooth="yes"/>
      <point x="138" y="-226" type="curve" smooth="yes"/>
      <point x="138" y="-238"/>
      <point x="143" y="-250"/>
      <point x="154" y="-259" type="curve"/>
      <point x="261" y="-219" smooth="yes"/>
      <point x="312" y="-170" smooth="yes"/>
      <point x="312" y="-125" type="curve" smooth="yes"/>
      <point x="312" y="-78" smooth="yes"/>
      <point x="234" y="-57" smooth="yes"/>
      <point x="234" y="-24" type="curve" smooth="yes"/>
      <point x="234" y="-16"/>
      <point x="235" y="-8"/>
      <point x="247" y="11" type="curve"/>
    </contour>
  </outline>
</glyph>
<glyph name="ordmasculine" format="1">
  <advance width="331"/>
  <unicode hex="00BA"/>
  <outline>
    <contour>
      <point x="51" y="317" type="curve"/>
      <point x="26" y="278" type="line"/>
      <point x="30" y="265" type="line"/>
      <point x="83" y="269" smooth="yes"/>
      <point x="106" y="269" smooth="yes"/>
      <point x="159" y="269" type="curve" smooth="yes" name="hr01"/>
      <point x="206" y="269"/>
      <point x="220" y="269"/>
      <point x="267" y="266" type="curve"/>
      <point x="292" y="305" type="line"/>
      <point x="288" y="317" type="line" name="hr02"/>
      <point x="235" y="313" smooth="yes"/>
      <point x="213" y="313" smooth="yes"/>
      <point x="159" y="313" type="curve" smooth="yes" name="hr03"/>
      <point x="112" y="313"/>
      <point x="98" y="313"/>
    </contour>
    <component  base="osuperior"/>
  </outline>
</glyph>
<glyph name="AE" format="1">
  <advance width="967"/>
  <unicode hex="00C6"/>
  <outline>
    <contour>
      <point x="475" y="69" type="curve"/>
      <point x="472" y="44"/>
      <point x="446" y="38"/>
      <point x="386" y="26" type="curve"/>
      <point x="389" y="-3" type="line"/>
      <point x="431" y="-1" smooth="yes"/>
      <point x="459" y="0" smooth="yes"/>
      <point x="509" y="0" type="curve" smooth="yes" name="hr01"/>
      <point x="909" y="0" type="line"/>
      <point x="911" y="36"/>
      <point x="921" y="123"/>
      <point x="933" y="159" type="curve"/>
      <point x="906" y="171" type="line"/>
      <point x="865" y="43" smooth="yes"/>
      <point x="789" y="36" smooth="yes"/>
      <point x="686" y="36" type="curve" smooth="yes"/>
      <point x="643" y="36"/>
      <point x="592" y="44"/>
      <point x="585" y="68" type="curve"/>
      <point x="585" y="68"/>
      <point x="574" y="121"/>
      <point x="574" y="327" type="curve"/>
      <point x="637" y="327" smooth="yes"/>
      <point x="709" y="325" smooth="yes"/>
      <point x="734" y="319" type="curve" smooth="yes"/>
      <point x="759" y="313"/>
      <point x="764" y="298"/>
      <point x="777" y="231" type="curve"/>
      <point x="812" y="236" type="line"/>
      <point x="807" y="273" smooth="yes"/>
      <point x="804" y="310" smooth="yes"/>
      <point x="804" y="348" type="curve" smooth="yes"/>
      <point x="804" y="385"/>
      <point x="807" y="423"/>
      <point x="812" y="459" type="curve"/>
      <point x="777" y="463" type="line"/>
      <point x="764" y="396" smooth="yes"/>
      <point x="759" y="381" smooth="yes"/>
      <point x="734" y="375" type="curve" smooth="yes"/>
      <point x="709" y="369"/>
      <point x="637" y="367"/>
      <point x="574" y="367" type="curve"/>
      <point x="575" y="556"/>
      <point x="585" y="621"/>
      <point x="585" y="621" type="curve"/>
      <point x="588" y="641" smooth="yes"/>
      <point x="608" y="644" smooth="yes"/>
      <point x="637" y="644" type="curve" smooth="yes"/>
      <point x="800" y="644"/>
      <point x="837" y="642"/>
      <point x="875" y="517" type="curve"/>
      <point x="902" y="529" type="line"/>
      <point x="896" y="565" smooth="yes"/>
      <point x="890" y="634" smooth="yes"/>
      <point x="890" y="680" type="curve" smooth="yes"/>
      <point x="890" y="691" type="line" name="hr02"/>
      <point x="818" y="688" smooth="yes"/>
      <point x="702" y="685" smooth="yes"/>
      <point x="588" y="685" type="curve" smooth="yes" name="hr03"/>
      <point x="371" y="685" type="line"/>
      <point x="90" y="75" type="line" smooth="yes"/>
      <point x="79" y="50"/>
      <point x="60" y="38"/>
      <point x="0" y="26" type="curve"/>
      <point x="3" y="-3" type="line"/>
      <point x="45" y="-1" smooth="yes"/>
      <point x="68" y="0" smooth="yes"/>
      <point x="118" y="0" type="curve" smooth="yes" name="hr04"/>
      <point x="168" y="0"/>
      <point x="209" y="-1"/>
      <point x="251" y="-3" type="curve" name="hr05"/>
      <point x="254" y="26" type="line"/>
      <point x="198" y="37"/>
      <point x="170" y="46"/>
      <point x="163" y="63" type="curve"/>
      <point x="163" y="78"/>
      <point x="219" y="193"/>
      <point x="277" y="327" type="curve"/>
      <point x="484" y="327" type="line"/>
      <point x="483" y="125"/>
      <point x="475" y="69"/>
    </contour>
    <contour>
      <point x="420" y="646" type="line"/>
      <point x="459" y="646"/>
      <point x="476" y="641"/>
      <point x="479" y="616" type="curve"/>
      <point x="479" y="616"/>
      <point x="483" y="560"/>
      <point x="484" y="367" type="curve"/>
      <point x="295" y="367" type="line"/>
    </contour>
  </outline>
</glyph>
<glyph name="multiply" format="1">
  <advance width="523"/>
  <unicode hex="00D7"/>
  <outline>
    <contour>
      <point x="443" y="529" type="line" name="hr00"/>
      <point x="261" y="347" type="line"/>
      <point x="80" y="529" type="line"/>
      <point x="37" y="485" type="line"/>
      <point x="218" y="304" type="line"/>
      <point x="37" y="123" type="line"/>
      <point x="81" y="80" type="line"/>
      <point x="261" y="260" type="line"/>
      <point x="443" y="79" type="line"/>
      <point x="486" y="123" type="line"/>
      <point x="305" y="304" type="line"/>
      <point x="487" y="486" type="line"/>
    </contour>
  </outline>
</glyph>
<glyph name="germandbls" format="1">
  <advance width="576"/>
  <unicode hex="00DF"/>
  <outline>
    <contour>
      <point x="231" y="16" type="line"/>
      <point x="269" y="1" smooth="yes"/>
      <point x="328" y="-9" smooth="yes"/>
      <point x="378" y="-9" type="curve" smooth="yes"/>
      <point x="493" y="-9" smooth="yes"/>
      <point x="536" y="56" smooth="yes"/>
      <point x="536" y="117" type="curve" smooth="yes"/>
      <point x="536" y="242" smooth="yes"/>
      <point x="327" y="269" smooth="yes"/>
      <point x="327" y="369" type="curve" smooth="yes"/>
      <point x="327" y="498" smooth="yes"/>
      <point x="510" y="481" smooth="yes"/>
      <point x="510" y="620" type="curve" smooth="yes" name="hr01"/>
      <point x="510" y="654" smooth="yes"/>
      <point x="486" y="730" smooth="yes"/>
      <point x="347" y="730" type="curve" smooth="yes"/>
      <point x="180" y="730"/>
      <point x="101" y="595"/>
      <point x="101" y="451" type="curve"/>
      <point x="67" y="453"/>
      <point x="53" y="455"/>
      <point x="53" y="455" type="curve"/>
      <point x="30" y="416" type="line"/>
      <point x="33" y="405" type="line"/>
      <point x="33" y="405"/>
      <point x="58" y="405"/>
      <point x="102" y="406" type="curve"/>
      <point x="102" y="120"/>
      <point x="95" y="48"/>
      <point x="94" y="48" type="curve"/>
      <point x="92" y="37"/>
      <point x="47" y="28"/>
      <point x="26" y="26" type="curve"/>
      <point x="23" y="-3" type="line"/>
      <point x="64" y="-1"/>
      <point x="134" y="0"/>
      <point x="190" y="0" type="curve"/>
      <point x="190" y="24" smooth="yes"/>
      <point x="180" y="197" smooth="yes"/>
      <point x="180" y="456" type="curve" smooth="yes"/>
      <point x="180" y="632" smooth="yes"/>
      <point x="247" y="686" smooth="yes"/>
      <point x="325" y="686" type="curve" smooth="yes"/>
      <point x="382" y="686" smooth="yes"/>
      <point x="426" y="653" smooth="yes"/>
      <point x="426" y="608" type="curve" smooth="yes"/>
      <point x="426" y="481" smooth="yes"/>
      <point x="249" y="497" smooth="yes"/>
      <point x="249" y="357" type="curve" smooth="yes"/>
      <point x="249" y="217" smooth="yes"/>
      <point x="453" y="182" smooth="yes"/>
      <point x="453" y="97" type="curve" smooth="yes" name="hr02"/>
      <point x="453" y="48" smooth="yes"/>
      <point x="424" y="31" smooth="yes"/>
      <point x="386" y="31" type="curve" smooth="yes"/>
      <point x="337" y="31"/>
      <point x="273" y="61"/>
      <point x="244" y="87" type="curve"/>
    </contour>
  </outline>
</glyph>
<glyph name="eth" format="1">
  <advance width="529"/>
  <unicode hex="00F0"/>
  <outline>
    <contour>
      <point x="226" y="600" type="line" name="hr00"/>
      <point x="289" y="545"/>
      <point x="322" y="490"/>
      <point x="344" y="443" type="curve"/>
      <point x="324" y="453" smooth="yes"/>
      <point x="302" y="459" smooth="yes"/>
      <point x="278" y="459" type="curve" smooth="yes"/>
      <point x="106" y="459" smooth="yes"/>
      <point x="39" y="333" smooth="yes"/>
      <point x="39" y="206" type="curve" smooth="yes"/>
      <point x="39" y="78" smooth="yes"/>
      <point x="102" y="-9" smooth="yes"/>
      <point x="251" y="-9" type="curve" smooth="yes"/>
      <point x="423" y="-9" smooth="yes"/>
      <point x="490" y="116" smooth="yes"/>
      <point x="490" y="243" type="curve" smooth="yes"/>
      <point x="489" y="410"/>
      <point x="378" y="541"/>
      <point x="265" y="628" type="curve"/>
      <point x="328" y="674" type="line"/>
      <point x="328" y="731" type="line"/>
      <point x="225" y="656" type="line"/>
      <point x="176" y="690"/>
      <point x="128" y="715"/>
      <point x="92" y="730" type="curve"/>
      <point x="76" y="695" type="line"/>
      <point x="120" y="674"/>
      <point x="157" y="652"/>
      <point x="188" y="629" type="curve"/>
      <point x="103" y="567" type="line"/>
      <point x="103" y="510" type="line"/>
    </contour>
    <contour>
      <point x="402" y="206" type="curve"/>
      <point x="400" y="145" smooth="yes"/>
      <point x="371" y="31" smooth="yes"/>
      <point x="262" y="31" type="curve" smooth="yes"/>
      <point x="158" y="31" smooth="yes"/>
      <point x="127" y="136" smooth="yes"/>
      <point x="127" y="230" type="curve" smooth="yes"/>
      <point x="127" y="285" smooth="yes"/>
      <point x="148" y="419" smooth="yes"/>
      <point x="267" y="419" type="curve" smooth="yes"/>
      <point x="378" y="419"/>
      <point x="402" y="304"/>
    </contour>
  </outline>
</glyph>
<glyph name="divide" format="1">
  <advance width="523"/>
  <unicode hex="00F7"/>
  <outline>
    <contour>
      <point x="24" y="273" type="line" name="hr00"/>
      <point x="499" y="273" type="line"/>
      <point x="499" y="334" type="line"/>
      <point x="24" y="334" type="line"/>
    </contour>
    <contour>
      <point x="261" y="398" type="curve" smooth="yes"/>
      <point x="290" y="398" smooth="yes"/>
      <point x="314" y="420" smooth="yes"/>
      <point x="314" y="453" type="curve" smooth="yes"/>
      <point x="314" y="483" smooth="yes"/>
      <point x="290" y="505" smooth="yes"/>
      <point x="261" y="505" type="curve" smooth="yes"/>
      <point x="232" y="505" smooth="yes"/>
      <point x="209" y="483" smooth="yes"/>
      <point x="209" y="453" type="curve" smooth="yes"/>
      <point x="209" y="420" smooth="yes"/>
      <point x="232" y="398" smooth="yes"/>
    </contour>
    <contour>
      <point x="261" y="101" type="curve" smooth="yes"/>
      <point x="290" y="101" smooth="yes"/>
      <point x="314" y="123" smooth="yes"/>
      <point x="314" y="156" type="curve" smooth="yes"/>
      <point x="314" y="186" smooth="yes"/>
      <point x="290" y="208" smooth="yes"/>
      <point x="261" y="208" type="curve" smooth="yes"/>
      <point x="232" y="208" smooth="yes"/>
      <point x="209" y="186" smooth="yes"/>
      <point x="209" y="156" type="curve" smooth="yes"/>
      <point x="209" y="123" smooth="yes"/>
      <point x="232" y="101" smooth="yes"/>
    </contour>
  </outline>
</glyph>
<glyph name="Dcroat" format="1">
  <advance width="769"/>
  <unicode hex="0110"/>
  <outline>
    <contour>
      <point x="420" y="315" type="line" name="hr00"/>
      <point x="420" y="369" type="line"/>
      <point x="38" y="369" type="line"/>
      <point x="38" y="316" type="line"/>
    </contour>
    <component  base="D"/>
  </outline>
</glyph>
<glyph name="dcroat" format="1">
  <advance width="544"/>
  <unicode hex="0111"/>
  <outline>
    <contour>
      <point x="543" y="585" type="line" name="hr00"/>
      <point x="249" y="585" type="line"/>
      <point x="236" y="543" type="line"/>
      <point x="530" y="543" type="line"/>
    </contour>
    <component  base="d"/>
  </outline>
</glyph>
<glyph name="hcircumflex" format="1">
  <advance width="558"/>
  <unicode hex="0125"/>
  <outline>
    <contour>
      <point x="95" y="883" type="line" name="hr00"/>
      <point x="-31" y="748" type="line"/>
      <point x="-1" y="730" type="line"/>
      <point x="113" y="813" type="line"/>
      <point x="228" y="730" type="line"/>
      <point x="258" y="748" type="line"/>
      <point x="132" y="882" type="line"/>
    </contour>
    <component  base="h"/>
  </outline>
</glyph>
<glyph name="hbar" format="1">
  <advance width="558"/>
  <unicode hex="0127"/>
  <outline>
    <contour>
      <point x="307" y="585" type="line" name="hr00"/>
      <point x="13" y="585" type="line"/>
      <point x="0" y="543" type="line"/>
      <point x="294" y="543" type="line"/>
    </contour>
    <component  base="h"/>
  </outline>
</glyph>
<glyph name="dotlessi" format="1">
  <advance width="275"/>
  <unicode hex="0131"/>
  <outline>
    <contour>
      <point x="161" y="459" type="line"/>
      <point x="127" y="450"/>
      <point x="65" y="441"/>
      <point x="29" y="441" type="curve"/>
      <point x="31" y="415" type="line"/>
      <point x="95" y="396" type="line"/>
      <point x="95" y="396" smooth="yes"/>
      <point x="103" y="375" smooth="yes"/>
      <point x="103" y="229" type="curve" smooth="yes"/>
      <point x="103" y="83" smooth="yes"/>
      <point x="95" y="48" smooth="yes"/>
      <point x="95" y="48" type="curve" smooth="yes"/>
      <point x="93" y="37"/>
      <point x="46" y="28"/>
      <point x="25" y="26" type="curve"/>
      <point x="22" y="-3" type="line"/>
      <point x="54" y="-1" smooth="yes"/>
      <point x="107" y="0" smooth="yes"/>
      <point x="141" y="0" type="curve" smooth="yes" name="hr01"/>
      <point x="175" y="0"/>
      <point x="224" y="-1"/>
      <point x="256" y="-3" type="curve" name="hr02"/>
      <point x="259" y="26" type="line"/>
      <point x="238" y="28"/>
      <point x="190" y="37"/>
      <point x="188" y="48" type="curve"/>
      <point x="188" y="48" smooth="yes"/>
      <point x="178" y="83" smooth="yes"/>
      <point x="178" y="229" type="curve" smooth="yes"/>
      <point x="178" y="294"/>
      <point x="180" y="414"/>
      <point x="180" y="450" type="curve"/>
    </contour>
  </outline>
</glyph>
<glyph name="Lacute" format="1">
  <advance width="580"/>
  <unicode hex="0139"/>
  <outline>
    <contour>
      <point x="346" y="846" type="line" name="hr00"/>
      <point x="347" y="850" smooth="yes"/>
      <point x="348" y="854" smooth="yes"/>
      <point x="348" y="858" type="curve" smooth="yes"/>
      <point x="348" y="878"/>
      <point x="331" y="904"/>
      <point x="307" y="917" type="curve"/>
      <point x="95" y="792" type="line"/>
      <point x="119" y="773" type="line"/>
    </contour>
    <component  base="L"/>
  </outline>
</glyph>
<glyph name="lacute" format="1">
  <advance width="272"/>
  <unicode hex="013A"/>
  <outline>
    <contour>
      <point x="274" y="823" type="line" name="hr00"/>
      <point x="275" y="827" smooth="yes"/>
      <point x="276" y="831" smooth="yes"/>
      <point x="276" y="835" type="curve" smooth="yes"/>
      <point x="276" y="855"/>
      <point x="259" y="881"/>
      <point x="235" y="894" type="curve"/>
      <point x="23" y="769" type="line"/>
      <point x="47" y="750" type="line"/>
    </contour>
    <component  base="l"/>
  </outline>
</glyph>
<glyph name="Lslash" format="1">
  <advance width="580"/>
  <unicode hex="0141"/>
  <outline>
    <contour>
      <point x="420" y="479" type="line" name="hr00"/>
      <point x="420" y="540" type="line"/>
      <point x="38" y="261" type="line"/>
      <point x="38" y="200" type="line"/>
    </contour>
    <component  base="L"/>
  </outline>
</glyph>
<glyph name="lslash" format="1">
  <advance width="272"/>
  <unicode hex="0142"/>
  <outline>
    <contour>
      <point x="250" y="426" type="line" name="hr00"/>
      <point x="250" y="483" type="line"/>
      <point x="25" y="319" type="line"/>
      <point x="25" y="262" type="line"/>
    </contour>
    <component  base="l"/>
  </outline>
</glyph>
<glyph name="Tbar" format="1">
  <advance width="642"/>
  <unicode hex="0166"/>
  <outline>
    <contour>
      <point x="543" y="335" type="line" name="hr00"/>
      <point x="111" y="335" type="line"/>
      <point x="98" y="293" type="line"/>
      <point x="530" y="293" type="line"/>
    </contour>
    <component  base="T"/>
  </outline>
</glyph>
<glyph name="florin" format="1">
  <advance width="523"/>
  <unicode hex="0192"/>
  <outline>
    <contour>
      <point x="204" y="509" type="curve" smooth="yes"/>
      <point x="204" y="509"/>
      <point x="196" y="425"/>
      <point x="186" y="332" type="curve"/>
      <point x="78" y="332" type="line"/>
      <point x="72" y="289" type="line"/>
      <point x="182" y="289" type="line"/>
      <point x="153" y="12" type="line" smooth="yes"/>
      <point x="138" y="-134" smooth="yes"/>
      <point x="93" y="-149" smooth="yes"/>
      <point x="55" y="-149" type="curve" smooth="yes"/>
      <point x="19" y="-149"/>
      <point x="-10" y="-140"/>
      <point x="-56" y="-119" type="curve"/>
      <point x="-70" y="-148" type="line"/>
      <point x="-25" y="-184" smooth="yes"/>
      <point x="22" y="-210" smooth="yes"/>
      <point x="96" y="-210" type="curve" smooth="yes"/>
      <point x="146" y="-210" smooth="yes"/>
      <point x="215" y="-192" smooth="yes"/>
      <point x="238" y="39" type="curve" smooth="yes"/>
      <point x="263" y="289" type="line"/>
      <point x="404" y="289" type="line"/>
      <point x="410" y="332" type="line"/>
      <point x="267" y="332" type="line"/>
      <point x="285" y="514" type="line" smooth="yes"/>
      <point x="291" y="576" smooth="yes"/>
      <point x="318" y="592" smooth="yes"/>
      <point x="351" y="592" type="curve" smooth="yes"/>
      <point x="388" y="592"/>
      <point x="431" y="575"/>
      <point x="456" y="485" type="curve"/>
      <point x="480" y="496" type="line"/>
      <point x="474" y="531"/>
      <point x="469" y="599"/>
      <point x="469" y="633" type="curve" name="hr01"/>
      <point x="454" y="630" smooth="yes"/>
      <point x="441" y="628" smooth="yes"/>
      <point x="430" y="628" type="curve" smooth="yes"/>
      <point x="401" y="628" smooth="yes"/>
      <point x="371" y="630" smooth="yes"/>
      <point x="344" y="630" type="curve" smooth="yes" name="hr02"/>
      <point x="273" y="630" smooth="yes"/>
      <point x="215" y="615" smooth="yes"/>
    </contour>
  </outline>
</glyph>
<glyph name="Aringacute" format="1">
  <advance width="694"/>
  <unicode hex="01FA"/>
  <outline>
    <contour>
      <point x="451" y="1035" type="line" name="hr00"/>
      <point x="448" y="1058"/>
      <point x="415" y="1077"/>
      <point x="382" y="1077" type="curve"/>
      <point x="261" y="897" type="line"/>
      <point x="291" y="892" type="line"/>
    </contour>
    <component  base="A"/>
    <component  base="ring" xOffset="173" yOffset="156"/>
  </outline>
</glyph>
<glyph name="circumflex" format="1">
  <advance width="325"/>
  <unicode hex="02C6"/>
  <outline>
    <contour>
      <point x="144" y="717" type="line" name="hr00"/>
      <point x="50" y="523" type="line"/>
      <point x="80" y="518" type="line"/>
      <point x="162" y="622" type="line"/>
      <point x="245" y="518" type="line"/>
      <point x="275" y="523" type="line"/>
      <point x="181" y="717" type="line"/>
    </contour>
  </outline>
</glyph>
<glyph name="caron" format="1">
  <advance width="325"/>
  <unicode hex="02C7"/>
  <outline>
    <contour>
      <point x="181" y="522" type="line" name="hr00"/>
      <point x="285" y="717" type="line"/>
      <point x="255" y="722" type="line"/>
      <point x="162" y="608" type="line"/>
      <point x="70" y="722" type="line"/>
      <point x="40" y="717" type="line"/>
      <point x="144" y="522" type="line"/>
    </contour>
  </outline>
</glyph>
<glyph name="breve" format="1">
  <advance width="325"/>
  <unicode hex="02D8"/>
  <outline>
    <contour>
      <point x="33" y="659" type="line" name="hr00"/>
      <point x="43" y="587" smooth="yes"/>
      <point x="103" y="551" smooth="yes"/>
      <point x="162" y="551" type="curve" smooth="yes"/>
      <point x="222" y="551"/>
      <point x="282" y="587"/>
      <point x="292" y="659" type="curve"/>
      <point x="255" y="664" type="line"/>
      <point x="248" y="628" smooth="yes"/>
      <point x="205" y="611" smooth="yes"/>
      <point x="162" y="611" type="curve" smooth="yes"/>
      <point x="120" y="611"/>
      <point x="77" y="628"/>
      <point x="70" y="664" type="curve"/>
    </contour>
  </outline>
</glyph>
<glyph name="ring" format="1">
  <advance width="325"/>
  <unicode hex="02DA"/>
  <outline>
    <contour>
      <point x="159" y="694" type="curve" name="hr00"/>
      <point x="197" y="694" smooth="yes"/>
      <point x="210" y="656" smooth="yes"/>
      <point x="210" y="615" type="curve" smooth="yes"/>
      <point x="210" y="561" smooth="yes"/>
      <point x="188" y="545" smooth="yes"/>
      <point x="161" y="545" type="curve" smooth="yes"/>
      <point x="124" y="545" smooth="yes"/>
      <point x="109" y="584" smooth="yes"/>
      <point x="109" y="624" type="curve" smooth="yes"/>
      <point x="109" y="678" smooth="yes"/>
      <point x="132" y="694" smooth="yes"/>
    </contour>
    <contour>
      <point x="57" y="619" type="curve"/>
      <point x="57" y="561" smooth="yes"/>
      <point x="104" y="515" smooth="yes"/>
      <point x="162" y="515" type="curve" smooth="yes"/>
      <point x="220" y="515" smooth="yes"/>
      <point x="266" y="561" smooth="yes"/>
      <point x="266" y="619" type="curve" smooth="yes"/>
      <point x="266" y="677" smooth="yes"/>
      <point x="220" y="724" smooth="yes"/>
      <point x="162" y="724" type="curve" smooth="yes"/>
      <point x="104" y="724" smooth="yes"/>
      <point x="57" y="677" smooth="yes"/>
    </contour>
  </outline>
</glyph>
<glyph name="ogonek" format="1">
  <advance width="459"/>
  <unicode hex="02DB"/>
  <outline>
    <contour>
      <point x="320" y="-144" type="line" name="hr00"/>
      <point x="305" y="-150" smooth="yes"/>
      <point x="290" y="-153" smooth="yes"/>
      <point x="277" y="-153" type="curve" smooth="yes"/>
      <point x="245" y="-153" smooth="yes"/>
      <point x="221" y="-136" smooth="yes"/>
      <point x="221" y="-97" type="curve" smooth="yes"/>
      <point x="221" y="-66"/>
      <point x="237" y="-21"/>
      <point x="298" y="0" type="curve"/>
      <point x="298" y="26" type="line"/>
      <point x="202" y="2" smooth="yes"/>
      <point x="156" y="-69" smooth="yes"/>
      <point x="156" y="-126" type="curve" smooth="yes"/>
      <point x="156" y="-169" smooth="yes"/>
      <point x="183" y="-203" smooth="yes"/>
      <point x="239" y="-203" type="curve" smooth="yes"/>
      <point x="268" y="-203"/>
      <point x="300" y="-193"/>
      <point x="326" y="-176" type="curve"/>
    </contour>
  </outline>
</glyph>
<glyph name="pi" format="1">
  <advance width="539"/>
  <unicode hex="03C0"/>
  <outline>
    <contour>
      <point x="263" y="456" type="line"/>
      <point x="229" y="456" smooth="yes"/>
      <point x="149" y="457" smooth="yes"/>
      <point x="68" y="461" type="curve" smooth="yes"/>
      <point x="58" y="461"/>
      <point x="26" y="418"/>
      <point x="17" y="385" type="curve"/>
      <point x="32" y="366" type="line"/>
      <point x="50" y="374" smooth="yes"/>
      <point x="83" y="385" smooth="yes"/>
      <point x="118" y="385" type="curve" smooth="yes"/>
      <point x="137" y="385" type="line"/>
      <point x="137" y="95" smooth="yes"/>
      <point x="121" y="74" smooth="yes"/>
      <point x="64" y="74" type="curve" smooth="yes"/>
      <point x="56" y="74" smooth="yes"/>
      <point x="50" y="71" smooth="yes"/>
      <point x="50" y="61" type="curve" smooth="yes"/>
      <point x="50" y="28" smooth="yes"/>
      <point x="79" y="-9" smooth="yes"/>
      <point x="101" y="-9" type="curve" smooth="yes"/>
      <point x="140" y="-9"/>
      <point x="180" y="27"/>
      <point x="181" y="385" type="curve"/>
      <point x="320" y="385" type="line"/>
      <point x="320" y="91" type="line" smooth="yes"/>
      <point x="320" y="22" smooth="yes"/>
      <point x="352" y="-9" smooth="yes"/>
      <point x="389" y="-9" type="curve" smooth="yes"/>
      <point x="429" y="-9"/>
      <point x="478" y="27"/>
      <point x="512" y="89" type="curve"/>
      <point x="483" y="107" type="line"/>
      <point x="467" y="79" smooth="yes"/>
      <point x="442" y="54" smooth="yes"/>
      <point x="423" y="54" type="curve" smooth="yes"/>
      <point x="411" y="54" smooth="yes"/>
      <point x="399" y="66" smooth="yes"/>
      <point x="399" y="93" type="curve" smooth="yes"/>
      <point x="399" y="384" type="line"/>
      <point x="418" y="383" smooth="yes"/>
      <point x="438" y="382" smooth="yes"/>
      <point x="463" y="382" type="curve" smooth="yes"/>
      <point x="473" y="382"/>
      <point x="505" y="425"/>
      <point x="514" y="458" type="curve" name="hr01"/>
      <point x="499" y="477" type="line" name="hr02"/>
      <point x="481" y="469" smooth="yes"/>
      <point x="448" y="458" smooth="yes"/>
      <point x="413" y="458" type="curve" smooth="yes" name="hr03"/>
    </contour>
  </outline>
</glyph>
<glyph name="bullet" format="1">
  <advance width="398"/>
  <unicode hex="2022"/>
  <outline>
    <contour>
      <point x="70" y="356" type="curve" name="hr00"/>
      <point x="70" y="285" smooth="yes"/>
      <point x="128" y="227" smooth="yes"/>
      <point x="199" y="227" type="curve" smooth="yes"/>
      <point x="270" y="227" smooth="yes"/>
      <point x="328" y="285" smooth="yes"/>
      <point x="328" y="356" type="curve" smooth="yes"/>
      <point x="328" y="427" smooth="yes"/>
      <point x="270" y="485" smooth="yes"/>
      <point x="199" y="485" type="curve" smooth="yes"/>
      <point x="128" y="485"/>
      <point x="70" y="427"/>
    </contour>
  </outline>
</glyph>
<glyph name="oneinferior" format="1">
  <advance width="320"/>
  <unicode hex="2081"/>
  <outline>
    <contour>
      <point x="194" y="244" type="line" name="hr00"/>
      <point x="169" y="238"/>
      <point x="122" y="232"/>
      <point x="59" y="232" type="curve"/>
      <point x="61" y="203" type="line"/>
      <point x="130" y="190" type="line"/>
      <point x="130" y="190" smooth="yes"/>
      <point x="134" y="168" smooth="yes"/>
      <point x="134" y="45" type="curve" smooth="yes"/>
      <point x="134" y="-78"/>
      <point x="130" y="-112"/>
      <point x="130" y="-112" type="curve"/>
      <point x="128" y="-126"/>
      <point x="96" y="-131"/>
      <point x="62" y="-136" type="curve"/>
      <point x="64" y="-162" type="line"/>
      <point x="97" y="-161" smooth="yes"/>
      <point x="136" y="-160" smooth="yes"/>
      <point x="174" y="-160" type="curve" smooth="yes"/>
      <point x="204" y="-160"/>
      <point x="233" y="-161"/>
      <point x="259" y="-162" type="curve"/>
      <point x="261" y="-136" type="line"/>
      <point x="228" y="-130"/>
      <point x="212" y="-126"/>
      <point x="210" y="-112" type="curve"/>
      <point x="210" y="-112" smooth="yes"/>
      <point x="206" y="-78" smooth="yes"/>
      <point x="206" y="45" type="curve" smooth="yes"/>
      <point x="206" y="174"/>
      <point x="208" y="238"/>
      <point x="208" y="238" type="curve"/>
    </contour>
  </outline>
</glyph>
<glyph name="twoinferior" format="1">
  <advance width="320"/>
  <unicode hex="2082"/>
  <outline>
    <contour>
      <point x="286" y="135" type="curve" smooth="yes" name="hr00"/>
      <point x="286" y="208" smooth="yes"/>
      <point x="227" y="244" smooth="yes"/>
      <point x="163" y="244" type="curve" smooth="yes"/>
      <point x="107" y="244"/>
      <point x="68" y="221"/>
      <point x="37" y="196" type="curve"/>
      <point x="52" y="172" type="line"/>
      <point x="68" y="181" smooth="yes"/>
      <point x="104" y="195" smooth="yes"/>
      <point x="138" y="195" type="curve" smooth="yes"/>
      <point x="175" y="195" smooth="yes"/>
      <point x="209" y="178" smooth="yes"/>
      <point x="209" y="127" type="curve" smooth="yes"/>
      <point x="209" y="16"/>
      <point x="18" y="-130"/>
      <point x="18" y="-130" type="curve"/>
      <point x="25" y="-160" type="line"/>
      <point x="289" y="-160" type="line"/>
      <point x="290" y="-137"/>
      <point x="296" y="-83"/>
      <point x="302" y="-60" type="curve"/>
      <point x="272" y="-53" type="line"/>
      <point x="253" y="-115"/>
      <point x="219" y="-120"/>
      <point x="97" y="-120" type="curve"/>
      <point x="95" y="-117" type="line"/>
      <point x="105" y="-110" smooth="yes"/>
      <point x="286" y="12" smooth="yes"/>
    </contour>
  </outline>
</glyph>
<glyph name="sixinferior" format="1">
  <advance width="320"/>
  <unicode hex="2086"/>
  <outline>
    <contour>
      <point x="131" y="3" type="line" name="hr00"/>
      <point x="143" y="8" smooth="yes"/>
      <point x="154" y="10" smooth="yes"/>
      <point x="164" y="10" type="curve" smooth="yes"/>
      <point x="200" y="10" smooth="yes"/>
      <point x="219" y="-22" smooth="yes"/>
      <point x="219" y="-58" type="curve" smooth="yes"/>
      <point x="219" y="-98" smooth="yes"/>
      <point x="195" y="-132" smooth="yes"/>
      <point x="160" y="-132" type="curve" smooth="yes"/>
      <point x="123" y="-132" smooth="yes"/>
      <point x="100" y="-92" smooth="yes"/>
      <point x="100" y="-26" type="curve" smooth="yes"/>
      <point x="100" y="57"/>
      <point x="155" y="174"/>
      <point x="275" y="236" type="curve"/>
      <point x="257" y="265" type="line"/>
      <point x="102" y="199" smooth="yes"/>
      <point x="24" y="70" smooth="yes"/>
      <point x="24" y="-20" type="curve" smooth="yes"/>
      <point x="24" y="-112" smooth="yes"/>
      <point x="83" y="-169" smooth="yes"/>
      <point x="165" y="-169" type="curve" smooth="yes"/>
      <point x="253" y="-169" smooth="yes"/>
      <point x="296" y="-110" smooth="yes"/>
      <point x="296" y="-56" type="curve" smooth="yes"/>
      <point x="296" y="-5" smooth="yes"/>
      <point x="256" y="45" smooth="yes"/>
      <point x="182" y="45" type="curve" smooth="yes"/>
      <point x="167" y="45"/>
      <point x="149" y="41"/>
      <point x="128" y="32" type="curve"/>
    </contour>
  </outline>
</glyph>
<glyph name="seveninferior" format="1">
  <advance width="320"/>
  <unicode hex="2087"/>
  <outline>
    <contour>
      <point x="297" y="215" type="line"/>
      <point x="295" y="240" type="line"/>
      <point x="272" y="239" smooth="yes"/>
      <point x="225" y="239" smooth="yes"/>
      <point x="175" y="239" type="curve" smooth="yes"/>
      <point x="117" y="239"/>
      <point x="55" y="240"/>
      <point x="29" y="242" type="curve" name="hr01"/>
      <point x="29" y="216"/>
      <point x="26" y="163"/>
      <point x="22" y="137" type="curve"/>
      <point x="51" y="129" type="line"/>
      <point x="70" y="196" smooth="yes"/>
      <point x="101" y="196" smooth="yes"/>
      <point x="178" y="196" type="curve" smooth="yes" name="hr02"/>
      <point x="209" y="196"/>
      <point x="226" y="194"/>
      <point x="228" y="182" type="curve"/>
      <point x="53" y="-174" type="line"/>
      <point x="128" y="-180" type="line"/>
    </contour>
  </outline>
</glyph>
<glyph name="eightinferior" format="1">
  <advance width="320"/>
  <unicode hex="2088"/>
  <outline>
    <contour>
      <point x="159" y="207" type="curve" smooth="yes"/>
      <point x="196" y="207" smooth="yes"/>
      <point x="214" y="183" smooth="yes"/>
      <point x="214" y="154" type="curve" smooth="yes"/>
      <point x="214" y="128"/>
      <point x="197" y="96"/>
      <point x="171" y="79" type="curve"/>
      <point x="143" y="95" smooth="yes"/>
      <point x="108" y="121" smooth="yes"/>
      <point x="108" y="160" type="curve" smooth="yes"/>
      <point x="108" y="187" smooth="yes"/>
      <point x="129" y="207" smooth="yes"/>
    </contour>
    <contour>
      <point x="160" y="-130" type="curve" smooth="yes"/>
      <point x="119" y="-130" smooth="yes"/>
      <point x="98" y="-100" smooth="yes"/>
      <point x="98" y="-66" type="curve" smooth="yes"/>
      <point x="98" y="-33"/>
      <point x="118" y="4"/>
      <point x="150" y="22" type="curve"/>
      <point x="203" y="-2" smooth="yes"/>
      <point x="221" y="-37" smooth="yes"/>
      <point x="221" y="-67" type="curve" smooth="yes"/>
      <point x="221" y="-101" smooth="yes"/>
      <point x="193" y="-130" smooth="yes"/>
    </contour>
    <contour>
      <point x="293" y="-59" type="curve" smooth="yes"/>
      <point x="293" y="-15"/>
      <point x="272" y="23"/>
      <point x="210" y="56" type="curve"/>
      <point x="262" y="85" smooth="yes"/>
      <point x="281" y="122" smooth="yes"/>
      <point x="281" y="158" type="curve" smooth="yes" name="hr01"/>
      <point x="281" y="203" smooth="yes"/>
      <point x="238" y="244" smooth="yes"/>
      <point x="164" y="244" type="curve" smooth="yes"/>
      <point x="92" y="244" smooth="yes"/>
      <point x="37" y="202" smooth="yes"/>
      <point x="37" y="148" type="curve" smooth="yes"/>
      <point x="37" y="121"/>
      <point x="48" y="82"/>
      <point x="108" y="44" type="curve"/>
      <point x="48" y="14" smooth="yes"/>
      <point x="26" y="-25" smooth="yes"/>
      <point x="26" y="-68" type="curve" smooth="yes"/>
      <point x="26" y="-131" smooth="yes"/>
      <point x="83" y="-169" smooth="yes"/>
      <point x="154" y="-169" type="curve" smooth="yes"/>
      <point x="226" y="-169" smooth="yes"/>
      <point x="293" y="-128" smooth="yes"/>
    </contour>
  </outline>
</glyph>
<glyph name="Omega" format="1">
  <advance width="816"/>
  <unicode hex="2126"/>
  <outline>
    <contour>
      <point x="294" y="89" type="line" name="hr00"/>
      <point x="216" y="138" smooth="yes"/>
      <point x="176" y="271" smooth="yes"/>
      <point x="176" y="372" type="curve" smooth="yes"/>
      <point x="176" y="520" smooth="yes"/>
      <point x="280" y="638" smooth="yes"/>
      <point x="408" y="638" type="curve" smooth="yes"/>
      <point x="536" y="638" smooth="yes"/>
      <point x="640" y="520" smooth="yes"/>
      <point x="640" y="372" type="curve" smooth="yes"/>
      <point x="640" y="271"/>
      <point x="600" y="138"/>
      <point x="522" y="89" type="curve"/>
      <point x="546" y="0" type="line"/>
      <point x="772" y="0" type="line"/>
      <point x="774" y="36"/>
      <point x="784" y="123"/>
      <point x="796" y="159" type="curve"/>
      <point x="769" y="171" type="line"/>
      <point x="745" y="97" smooth="yes"/>
      <point x="711" y="51" smooth="yes"/>
      <point x="636" y="51" type="curve" smooth="yes"/>
      <point x="621" y="51"/>
      <point x="605" y="53"/>
      <point x="586" y="57" type="curve"/>
      <point x="581" y="75" type="line"/>
      <point x="683" y="135" smooth="yes"/>
      <point x="748" y="240" smooth="yes"/>
      <point x="748" y="360" type="curve" smooth="yes"/>
      <point x="748" y="543" smooth="yes"/>
      <point x="596" y="691" smooth="yes"/>
      <point x="408" y="691" type="curve" smooth="yes"/>
      <point x="220" y="691" smooth="yes"/>
      <point x="68" y="543" smooth="yes"/>
      <point x="68" y="360" type="curve" smooth="yes"/>
      <point x="68" y="240"/>
      <point x="133" y="135"/>
      <point x="235" y="75" type="curve"/>
      <point x="230" y="57" type="line"/>
      <point x="211" y="53" smooth="yes"/>
      <point x="195" y="51" smooth="yes"/>
      <point x="180" y="51" type="curve" smooth="yes"/>
      <point x="105" y="51"/>
      <point x="71" y="97"/>
      <point x="47" y="171" type="curve"/>
      <point x="20" y="159" type="line"/>
      <point x="32" y="123"/>
      <point x="42" y="36"/>
      <point x="44" y="0" type="curve"/>
      <point x="270" y="0" type="line"/>
    </contour>
  </outline>
</glyph>
<glyph name="estimated" format="1">
  <advance width="788"/>
  <unicode hex="212E"/>
  <outline>
    <contour>
      <point x="755" y="302" type="line" name="hr00"/>
      <point x="755" y="311" type="line" smooth="yes"/>
      <point x="755" y="490" smooth="yes"/>
      <point x="594" y="635" smooth="yes"/>
      <point x="395" y="635" type="curve" smooth="yes"/>
      <point x="196" y="635" smooth="yes"/>
      <point x="35" y="490" smooth="yes"/>
      <point x="35" y="311" type="curve" smooth="yes"/>
      <point x="35" y="132" smooth="yes"/>
      <point x="196" y="-13" smooth="yes"/>
      <point x="395" y="-13" type="curve" smooth="yes"/>
      <point x="511" y="-13"/>
      <point x="615" y="37"/>
      <point x="680" y="113" type="curve"/>
      <point x="628" y="113" type="line"/>
      <point x="571" y="48" smooth="yes"/>
      <point x="489" y="6" smooth="yes"/>
      <point x="396" y="6" type="curve" smooth="yes"/>
      <point x="309" y="6" smooth="yes"/>
      <point x="231" y="43" smooth="yes"/>
      <point x="175" y="102" type="curve" smooth="yes"/>
      <point x="170" y="107" smooth="yes"/>
      <point x="167" y="114" smooth="yes"/>
      <point x="167" y="122" type="curve" smooth="yes"/>
      <point x="167" y="298" type="line" smooth="yes"/>
      <point x="167" y="301" smooth="yes"/>
      <point x="169" y="302" smooth="yes"/>
      <point x="172" y="302" type="curve" smooth="yes"/>
    </contour>
    <contour>
      <point x="623" y="325" type="line" smooth="yes"/>
      <point x="623" y="323" smooth="yes"/>
      <point x="622" y="320" smooth="yes"/>
      <point x="619" y="320" type="curve" smooth="yes"/>
      <point x="172" y="320" type="line" smooth="yes"/>
      <point x="169" y="320" smooth="yes"/>
      <point x="167" y="323" smooth="yes"/>
      <point x="167" y="325" type="curve" smooth="yes"/>
      <point x="167" y="499" type="line" smooth="yes"/>
      <point x="167" y="508" smooth="yes"/>
      <point x="170" y="515" smooth="yes"/>
      <point x="176" y="521" type="curve" smooth="yes"/>
      <point x="232" y="579" smooth="yes"/>
      <point x="310" y="616" smooth="yes"/>
      <point x="396" y="616" type="curve" smooth="yes"/>
      <point x="481" y="616" smooth="yes"/>
      <point x="558" y="580" smooth="yes"/>
      <point x="614" y="524" type="curve" smooth="yes"/>
      <point x="620" y="518" smooth="yes"/>
      <point x="623" y="511" smooth="yes"/>
      <point x="623" y="503" type="curve" smooth="yes"/>
    </contour>
  </outline>
</glyph>
<glyph name="partialdiff" format="1">
  <advance width="459"/>
  <unicode hex="2202"/>
  <outline>
    <contour>
      <point x="332" y="448" type="line" name="hr00"/>
      <point x="318" y="455" smooth="yes"/>
      <point x="293" y="459" smooth="yes"/>
      <point x="278" y="459" type="curve" smooth="yes"/>
      <point x="119" y="459" smooth="yes"/>
      <point x="20" y="290" smooth="yes"/>
      <point x="20" y="155" type="curve" smooth="yes"/>
      <point x="20" y="66" smooth="yes"/>
      <point x="69" y="-9" smooth="yes"/>
      <point x="174" y="-9" type="curve" smooth="yes"/>
      <point x="333" y="-9" smooth="yes"/>
      <point x="439" y="160" smooth="yes"/>
      <point x="439" y="295" type="curve" smooth="yes"/>
      <point x="439" y="556" smooth="yes"/>
      <point x="242" y="691" smooth="yes"/>
      <point x="116" y="691" type="curve" smooth="yes"/>
      <point x="106" y="691"/>
      <point x="74" y="654"/>
      <point x="65" y="621" type="curve"/>
      <point x="80" y="602" type="line"/>
      <point x="98" y="610" smooth="yes"/>
      <point x="131" y="621" smooth="yes"/>
      <point x="166" y="621" type="curve" smooth="yes"/>
      <point x="249" y="621"/>
      <point x="308" y="551"/>
      <point x="336" y="450" type="curve"/>
    </contour>
    <contour>
      <point x="196" y="36" type="curve" smooth="yes"/>
      <point x="134" y="36" smooth="yes"/>
      <point x="108" y="97" smooth="yes"/>
      <point x="108" y="168" type="curve" smooth="yes"/>
      <point x="108" y="278" smooth="yes"/>
      <point x="166" y="414" smooth="yes"/>
      <point x="262" y="414" type="curve" smooth="yes"/>
      <point x="324" y="414" smooth="yes"/>
      <point x="351" y="353" smooth="yes"/>
      <point x="351" y="282" type="curve" smooth="yes"/>
      <point x="351" y="172" smooth="yes"/>
      <point x="292" y="36" smooth="yes"/>
    </contour>
  </outline>
</glyph>
<glyph name="Delta" format="1">
  <advance width="615"/>
  <unicode hex="2206"/>
  <outline>
    <contour>
      <point x="321" y="691" type="line" name="hr00"/>
      <point x="0" y="0" type="line"/>
      <point x="615" y="0" type="line"/>
      <point x="332" y="691" type="line"/>
    </contour>
    <contour>
      <point x="488" y="50" type="line"/>
      <point x="67" y="50" type="line"/>
      <point x="290" y="528" type="line"/>
    </contour>
  </outline>
</glyph>
<glyph name="notequal" format="1">
  <advance width="523"/>
  <unicode hex="2260"/>
  <outline>
    <contour>
      <point x="24" y="192" type="line" name="hr00"/>
      <point x="159" y="192" type="line"/>
      <point x="45" y="-9" type="line"/>
      <point x="110" y="-9" type="line"/>
      <point x="224" y="192" type="line"/>
      <point x="499" y="192" type="line"/>
      <point x="499" y="253" type="line"/>
      <point x="259" y="253" type="line"/>
      <point x="317" y="354" type="line"/>
      <point x="499" y="354" type="line"/>
      <point x="499" y="415" type="line"/>
      <point x="352" y="415" type="line"/>
      <point x="479" y="638" type="line"/>
      <point x="414" y="638" type="line"/>
      <point x="287" y="415" type="line"/>
      <point x="24" y="415" type="line"/>
      <point x="24" y="354" type="line"/>
      <point x="252" y="354" type="line"/>
      <point x="194" y="253" type="line"/>
      <point x="24" y="253" type="line"/>
    </contour>
  </outline>
</glyph>
<glyph name="lessequal" format="1">
  <advance width="523"/>
  <unicode hex="2264"/>
  <outline>
    <contour>
      <point x="487" y="56" type="line" name="hr00"/>
      <point x="487" y="125" type="line"/>
      <point x="151" y="303" type="line"/>
      <point x="487" y="481" type="line"/>
      <point x="487" y="550" type="line"/>
      <point x="37" y="303" type="line"/>
    </contour>
    <contour>
      <point x="34" y="-60" type="line"/>
      <point x="487" y="-60" type="line"/>
      <point x="487" y="1" type="line"/>
      <point x="34" y="1" type="line"/>
    </contour>
  </outline>
</glyph>
<glyph name="ff" format="1">
  <advance width="625"/>
  <unicode hex="FB00"/>
  <outline>
    <contour>
      <point x="411" y="406" type="line"/>
      <point x="411" y="120"/>
      <point x="404" y="48"/>
      <point x="403" y="48" type="curve"/>
      <point x="401" y="37"/>
      <point x="356" y="28"/>
      <point x="335" y="26" type="curve"/>
      <point x="332" y="-3" type="line"/>
      <point x="364" y="-1" smooth="yes"/>
      <point x="410" y="0" smooth="yes"/>
      <point x="444" y="0" type="curve" smooth="yes" name="hr01"/>
      <point x="478" y="0"/>
      <point x="537" y="-1"/>
      <point x="569" y="-3" type="curve" name="hr02"/>
      <point x="572" y="26" type="line"/>
      <point x="551" y="27" smooth="yes"/>
      <point x="497" y="37" smooth="yes"/>
      <point x="496" y="48" type="curve" smooth="yes"/>
      <point x="495" y="56"/>
      <point x="486" y="125"/>
      <point x="486" y="406" type="curve"/>
      <point x="556" y="405"/>
      <point x="590" y="402"/>
      <point x="590" y="402" type="curve"/>
      <point x="621" y="441" type="line"/>
      <point x="616" y="453" type="line"/>
      <point x="616" y="453"/>
      <point x="568" y="452"/>
      <point x="486" y="452" type="curve"/>
      <point x="486" y="626" smooth="yes"/>
      <point x="545" y="659" smooth="yes"/>
      <point x="601" y="659" type="curve" smooth="yes"/>
      <point x="636" y="659"/>
      <point x="669" y="648"/>
      <point x="687" y="640" type="curve"/>
      <point x="702" y="659" type="line"/>
      <point x="693" y="692" smooth="yes"/>
      <point x="661" y="729" smooth="yes"/>
      <point x="651" y="729" type="curve" smooth="yes"/>
      <point x="634" y="729"/>
      <point x="553" y="712"/>
      <point x="489" y="650" type="curve"/>
      <point x="454" y="682" smooth="yes"/>
      <point x="400" y="702" smooth="yes"/>
      <point x="338" y="702" type="curve" smooth="yes"/>
      <point x="224" y="702"/>
      <point x="101" y="636"/>
      <point x="101" y="451" type="curve"/>
      <point x="67" y="453"/>
      <point x="53" y="455"/>
      <point x="53" y="455" type="curve"/>
      <point x="30" y="416" type="line"/>
      <point x="33" y="405" type="line"/>
      <point x="33" y="405"/>
      <point x="58" y="405"/>
      <point x="102" y="406" type="curve"/>
      <point x="102" y="120"/>
      <point x="95" y="48"/>
      <point x="94" y="48" type="curve"/>
      <point x="92" y="37"/>
      <point x="47" y="28"/>
      <point x="26" y="26" type="curve"/>
      <point x="23" y="-3" type="line"/>
      <point x="55" y="-1" smooth="yes"/>
      <point x="101" y="0" smooth="yes"/>
      <point x="135" y="0" type="curve" smooth="yes" name="hr03"/>
      <point x="169" y="0"/>
      <point x="228" y="-1"/>
      <point x="260" y="-3" type="curve" name="hr04"/>
      <point x="263" y="26" type="line"/>
      <point x="242" y="27" smooth="yes"/>
      <point x="188" y="37" smooth="yes"/>
      <point x="187" y="48" type="curve" smooth="yes"/>
      <point x="186" y="56"/>
      <point x="177" y="125"/>
      <point x="177" y="406" type="curve"/>
    </contour>
    <contour>
      <point x="308" y="661" type="curve"/>
      <point x="373" y="661"/>
      <point x="413" y="634"/>
      <point x="448" y="599" type="curve"/>
      <point x="425" y="561"/>
      <point x="410" y="512"/>
      <point x="410" y="450" type="curve"/>
      <point x="364" y="448" smooth="yes"/>
      <point x="324" y="447" smooth="yes"/>
      <point x="278" y="447" type="curve" smooth="yes"/>
      <point x="244" y="447"/>
      <point x="211" y="448"/>
      <point x="177" y="449" type="curve"/>
      <point x="177" y="627" smooth="yes"/>
      <point x="243" y="661" smooth="yes"/>
    </contour>
  </outline>
</glyph>
<glyph name="ffi" format="1">
  <advance width="891"/>
  <unicode hex="FB03"/>
  <outline>
    <contour>
      <point x="338" y="703" type="curve" smooth="yes"/>
      <point x="224" y="703"/>
      <point x="101" y="637"/>
      <point x="101" y="452" type="curve"/>
      <point x="67" y="454"/>
      <point x="53" y="456"/>
      <point x="53" y="456" type="curve"/>
      <point x="30" y="417" type="line"/>
      <point x="33" y="406" type="line"/>
      <point x="102" y="406" type="line"/>
      <point x="102" y="120"/>
      <point x="95" y="48"/>
      <point x="94" y="48" type="curve"/>
      <point x="92" y="37"/>
      <point x="47" y="28"/>
      <point x="26" y="26" type="curve"/>
      <point x="23" y="-3" type="line"/>
      <point x="55" y="-1" smooth="yes"/>
      <point x="101" y="0" smooth="yes"/>
      <point x="135" y="0" type="curve" smooth="yes" name="hr01"/>
      <point x="169" y="0"/>
      <point x="228" y="-1"/>
      <point x="260" y="-3" type="curve" name="hr02"/>
      <point x="263" y="26" type="line"/>
      <point x="242" y="27" smooth="yes"/>
      <point x="188" y="37" smooth="yes"/>
      <point x="187" y="48" type="curve" smooth="yes"/>
      <point x="186" y="56"/>
      <point x="177" y="125"/>
      <point x="177" y="406" type="curve"/>
      <point x="411" y="406" type="line"/>
      <point x="411" y="120"/>
      <point x="404" y="48"/>
      <point x="403" y="48" type="curve"/>
      <point x="401" y="37"/>
      <point x="356" y="28"/>
      <point x="335" y="26" type="curve"/>
      <point x="332" y="-3" type="line"/>
      <point x="364" y="-1" smooth="yes"/>
      <point x="410" y="0" smooth="yes"/>
      <point x="444" y="0" type="curve" smooth="yes" name="hr03"/>
      <point x="478" y="0"/>
      <point x="537" y="-1"/>
      <point x="569" y="-3" type="curve" name="hr04"/>
      <point x="572" y="26" type="line"/>
      <point x="551" y="27" smooth="yes"/>
      <point x="497" y="37" smooth="yes"/>
      <point x="496" y="48" type="curve" smooth="yes"/>
      <point x="495" y="56"/>
      <point x="486" y="125"/>
      <point x="486" y="406" type="curve"/>
      <point x="574" y="406" type="line" smooth="yes"/>
      <point x="660" y="406"/>
      <point x="710" y="396"/>
      <point x="710" y="396" type="curve"/>
      <point x="710" y="396" smooth="yes"/>
      <point x="718" y="375" smooth="yes"/>
      <point x="718" y="229" type="curve" smooth="yes"/>
      <point x="718" y="83"/>
      <point x="710" y="48"/>
      <point x="710" y="48" type="curve"/>
      <point x="708" y="37"/>
      <point x="661" y="28"/>
      <point x="640" y="26" type="curve"/>
      <point x="637" y="-3" type="line"/>
      <point x="669" y="-1" smooth="yes"/>
      <point x="722" y="0" smooth="yes"/>
      <point x="756" y="0" type="curve" smooth="yes" name="hr05"/>
      <point x="790" y="0"/>
      <point x="839" y="-1"/>
      <point x="871" y="-3" type="curve" name="hr06"/>
      <point x="874" y="26" type="line"/>
      <point x="853" y="28"/>
      <point x="805" y="37"/>
      <point x="803" y="48" type="curve"/>
      <point x="803" y="48" smooth="yes"/>
      <point x="793" y="83" smooth="yes"/>
      <point x="793" y="229" type="curve" smooth="yes"/>
      <point x="793" y="294"/>
      <point x="795" y="414"/>
      <point x="795" y="450" type="curve"/>
      <point x="776" y="459" type="line"/>
      <point x="742" y="452"/>
      <point x="522" y="452"/>
      <point x="486" y="452" type="curve"/>
      <point x="486" y="627" smooth="yes"/>
      <point x="549" y="670" smooth="yes"/>
      <point x="620" y="670" type="curve" smooth="yes"/>
      <point x="662" y="670"/>
      <point x="705" y="648"/>
      <point x="736" y="610" type="curve"/>
      <point x="766" y="624" smooth="yes"/>
      <point x="785" y="648" smooth="yes"/>
      <point x="785" y="672" type="curve" smooth="yes"/>
      <point x="785" y="708" smooth="yes"/>
      <point x="726" y="730" smooth="yes"/>
      <point x="667" y="730" type="curve" smooth="yes"/>
      <point x="608" y="730"/>
      <point x="539" y="709"/>
      <point x="487" y="658" type="curve"/>
      <point x="451" y="686" smooth="yes"/>
      <point x="396" y="703" smooth="yes"/>
    </contour>
    <contour>
      <point x="410" y="451" type="curve"/>
      <point x="364" y="449" smooth="yes"/>
      <point x="324" y="448" smooth="yes"/>
      <point x="278" y="448" type="curve" smooth="yes"/>
      <point x="244" y="448"/>
      <point x="211" y="449"/>
      <point x="177" y="450" type="curve"/>
      <point x="177" y="628" smooth="yes"/>
      <point x="243" y="662" smooth="yes"/>
      <point x="308" y="662" type="curve" smooth="yes"/>
      <point x="368" y="662"/>
      <point x="414" y="638"/>
      <point x="448" y="607" type="curve"/>
      <point x="424" y="567"/>
      <point x="410" y="515"/>
    </contour>
  </outline>
</glyph>
<glyph name="acute.case" format="1">
  <advance width="285"/>
  <outline>
    <contour>
      <point x="273" y="910" type="line" name="hr00"/>
      <point x="270" y="933"/>
      <point x="237" y="952"/>
      <point x="204" y="952" type="curve"/>
      <point x="70" y="753" type="line"/>
      <point x="100" y="748" type="line"/>
    </contour>
  </outline>
</glyph>
<glyph name="asuperior" format="1">
  <advance width="286"/>
  <outline>
    <contour>
      <point x="177" y="422" type="line" name="hr00"/>
      <point x="157" y="410" smooth="yes"/>
      <point x="135" y="404" smooth="yes"/>
      <point x="118" y="404" type="curve" smooth="yes"/>
      <point x="97" y="404" smooth="yes"/>
      <point x="82" y="414" smooth="yes"/>
      <point x="82" y="435" type="curve" smooth="yes"/>
      <point x="82" y="463"/>
      <point x="112" y="495"/>
      <point x="177" y="496" type="curve"/>
    </contour>
    <contour>
      <point x="273" y="406" type="line"/>
      <point x="263" y="401" smooth="yes"/>
      <point x="256" y="400" smooth="yes"/>
      <point x="252" y="400" type="curve" smooth="yes"/>
      <point x="242" y="400" smooth="yes"/>
      <point x="234" y="405" smooth="yes"/>
      <point x="234" y="426" type="curve" smooth="yes"/>
      <point x="234" y="446" smooth="yes"/>
      <point x="230" y="566" smooth="yes"/>
      <point x="230" y="587" type="curve" smooth="yes"/>
      <point x="230" y="642" smooth="yes"/>
      <point x="197" y="656" smooth="yes"/>
      <point x="157" y="656" type="curve" smooth="yes"/>
      <point x="77" y="656" smooth="yes"/>
      <point x="33" y="599" smooth="yes"/>
      <point x="33" y="588" type="curve" smooth="yes"/>
      <point x="33" y="581"/>
      <point x="51" y="558"/>
      <point x="71" y="548" type="curve"/>
      <point x="90" y="556" type="line"/>
      <point x="87" y="565" smooth="yes"/>
      <point x="87" y="569" smooth="yes"/>
      <point x="87" y="574" type="curve" smooth="yes"/>
      <point x="87" y="598" smooth="yes"/>
      <point x="103" y="617" smooth="yes"/>
      <point x="135" y="617" type="curve" smooth="yes"/>
      <point x="159" y="617" smooth="yes"/>
      <point x="177" y="606" smooth="yes"/>
      <point x="177" y="584" type="curve" smooth="yes"/>
      <point x="177" y="530" type="line"/>
      <point x="71" y="516" smooth="yes"/>
      <point x="21" y="469" smooth="yes"/>
      <point x="21" y="422" type="curve" smooth="yes"/>
      <point x="21" y="376" smooth="yes"/>
      <point x="54" y="360" smooth="yes"/>
      <point x="89" y="360" type="curve" smooth="yes"/>
      <point x="121" y="360"/>
      <point x="150" y="376"/>
      <point x="180" y="398" type="curve"/>
      <point x="186" y="372" smooth="yes"/>
      <point x="205" y="360" smooth="yes"/>
      <point x="226" y="360" type="curve" smooth="yes"/>
      <point x="244" y="360"/>
      <point x="265" y="370"/>
      <point x="282" y="384" type="curve"/>
    </contour>
  </outline>
</glyph>
<glyph name="breve.case" format="1">
  <advance width="325"/>
  <outline>
    <contour>
      <point x="33" y="889" type="line" name="hr00"/>
      <point x="43" y="817" smooth="yes"/>
      <point x="103" y="781" smooth="yes"/>
      <point x="162" y="781" type="curve" smooth="yes"/>
      <point x="222" y="781"/>
      <point x="282" y="817"/>
      <point x="292" y="889" type="curve"/>
      <point x="255" y="894" type="line"/>
      <point x="248" y="858" smooth="yes"/>
      <point x="205" y="841" smooth="yes"/>
      <point x="162" y="841" type="curve" smooth="yes"/>
      <point x="120" y="841"/>
      <point x="77" y="858"/>
      <point x="70" y="894" type="curve"/>
    </contour>
  </outline>
</glyph>
<glyph name="commaaccent" format="1">
  <advance width="250"/>
  <outline>
    <contour>
      <point x="62" y="-92" type="curve" smooth="yes" name="hr00"/>
      <point x="62" y="-114" smooth="yes"/>
      <point x="78" y="-135" smooth="yes"/>
      <point x="105" y="-135" type="curve" smooth="yes"/>
      <point x="117" y="-135"/>
      <point x="132" y="-129"/>
      <point x="138" y="-119" type="curve"/>
      <point x="140" y="-126" smooth="yes"/>
      <point x="140" y="-132" smooth="yes"/>
      <point x="140" y="-139" type="curve" smooth="yes"/>
      <point x="140" y="-176"/>
      <point x="115" y="-215"/>
      <point x="81" y="-244" type="curve"/>
      <point x="96" y="-265" type="line"/>
      <point x="154" y="-233" smooth="yes"/>
      <point x="190" y="-183" smooth="yes"/>
      <point x="190" y="-131" type="curve" smooth="yes"/>
      <point x="190" y="-71" smooth="yes"/>
      <point x="151" y="-45" smooth="yes"/>
      <point x="116" y="-45" type="curve" smooth="yes"/>
      <point x="87" y="-45" smooth="yes"/>
      <point x="62" y="-62" smooth="yes"/>
    </contour>
  </outline>
</glyph>
<glyph name="dieresis.case" format="1">
  <advance width="464"/>
  <outline>
    <contour>
      <point x="320" y="793" type="curve" smooth="yes" name="hr00"/>
      <point x="349" y="793" smooth="yes"/>
      <point x="372" y="816" smooth="yes"/>
      <point x="372" y="847" type="curve" smooth="yes"/>
      <point x="372" y="876" smooth="yes"/>
      <point x="349" y="899" smooth="yes"/>
      <point x="320" y="899" type="curve" smooth="yes"/>
      <point x="291" y="899" smooth="yes"/>
      <point x="268" y="876" smooth="yes"/>
      <point x="268" y="847" type="curve" smooth="yes"/>
      <point x="268" y="816" smooth="yes"/>
      <point x="291" y="793" smooth="yes"/>
    </contour>
    <contour>
      <point x="140" y="793" type="curve" smooth="yes"/>
      <point x="169" y="793" smooth="yes"/>
      <point x="192" y="816" smooth="yes"/>
      <point x="192" y="847" type="curve" smooth="yes"/>
      <point x="192" y="876" smooth="yes"/>
      <point x="169" y="899" smooth="yes"/>
      <point x="140" y="899" type="curve" smooth="yes"/>
      <point x="111" y="899" smooth="yes"/>
      <point x="88" y="876" smooth="yes"/>
      <point x="88" y="847" type="curve" smooth="yes"/>
      <point x="88" y="816" smooth="yes"/>
      <point x="111" y="793" smooth="yes"/>
    </contour>
  </outline>
</glyph>
<glyph name="fb" format="1">
  <advance width="852"/>
  <outline>
    <contour>
      <point x="473" y="367" type="curve"/>
      <point x="516" y="389" smooth="yes"/>
      <point x="553" y="399" smooth="yes"/>
      <point x="585" y="399" type="curve" smooth="yes"/>
      <point x="677" y="399" smooth="yes"/>
      <point x="722" y="317" smooth="yes"/>
      <point x="722" y="231" type="curve" smooth="yes"/>
      <point x="722" y="136" smooth="yes"/>
      <point x="668" y="37" smooth="yes"/>
      <point x="566" y="37" type="curve" smooth="yes"/>
      <point x="541" y="37"/>
      <point x="513" y="42"/>
      <point x="482" y="54" type="curve"/>
      <point x="480" y="70"/>
      <point x="473" y="155"/>
    </contour>
    <contour>
      <point x="392" y="649" type="curve"/>
      <point x="392" y="649" smooth="yes"/>
      <point x="398" y="627" smooth="yes"/>
      <point x="398" y="369" type="curve" smooth="yes"/>
      <point x="398" y="112"/>
      <point x="390" y="25"/>
      <point x="390" y="25" type="curve"/>
      <point x="442" y="3" smooth="yes"/>
      <point x="501" y="-10" smooth="yes"/>
      <point x="556" y="-10" type="curve" smooth="yes"/>
      <point x="735" y="-10" smooth="yes"/>
      <point x="811" y="114" smooth="yes"/>
      <point x="811" y="234" type="curve" smooth="yes"/>
      <point x="811" y="348" smooth="yes"/>
      <point x="743" y="459" smooth="yes"/>
      <point x="628" y="459" type="curve" smooth="yes"/>
      <point x="583" y="459"/>
      <point x="531" y="442"/>
      <point x="473" y="402" type="curve"/>
      <point x="473" y="610"/>
      <point x="475" y="721"/>
      <point x="475" y="721" type="curve"/>
      <point x="456" y="730" type="line"/>
      <point x="437" y="711" type="line"/>
      <point x="296" y="750"/>
      <point x="101" y="668"/>
      <point x="101" y="451" type="curve"/>
      <point x="67" y="453"/>
      <point x="53" y="455"/>
      <point x="53" y="455" type="curve"/>
      <point x="30" y="416" type="line"/>
      <point x="33" y="405" type="line"/>
      <point x="33" y="405"/>
      <point x="58" y="405"/>
      <point x="102" y="406" type="curve"/>
      <point x="102" y="120"/>
      <point x="95" y="48"/>
      <point x="94" y="48" type="curve"/>
      <point x="92" y="37"/>
      <point x="47" y="28"/>
      <point x="26" y="26" type="curve"/>
      <point x="23" y="-3" type="line"/>
      <point x="55" y="-1" smooth="yes"/>
      <point x="101" y="0" smooth="yes"/>
      <point x="135" y="0" type="curve" smooth="yes" name="hr01"/>
      <point x="169" y="0"/>
      <point x="228" y="-1"/>
      <point x="260" y="-3" type="curve"/>
      <point x="263" y="26" type="line"/>
      <point x="242" y="27" smooth="yes"/>
      <point x="188" y="37" smooth="yes"/>
      <point x="187" y="48" type="curve" smooth="yes"/>
      <point x="186" y="56"/>
      <point x="177" y="125"/>
      <point x="177" y="406" type="curve"/>
      <point x="247" y="405"/>
      <point x="281" y="402"/>
      <point x="281" y="402" type="curve"/>
      <point x="312" y="441" type="line"/>
      <point x="307" y="453" type="line"/>
      <point x="307" y="453"/>
      <point x="259" y="452"/>
      <point x="177" y="452" type="curve"/>
      <point x="177" y="614"/>
      <point x="231" y="712"/>
    </contour>
  </outline>
</glyph>
<glyph name="fh" format="1">
  <advance width="874"/>
  <outline>
    <contour>
      <point x="177" y="406" type="curve"/>
      <point x="247" y="405"/>
      <point x="281" y="402"/>
      <point x="281" y="402" type="curve"/>
      <point x="312" y="441" type="line"/>
      <point x="307" y="453" type="line"/>
      <point x="307" y="453"/>
      <point x="259" y="452"/>
      <point x="177" y="452" type="curve"/>
      <point x="177" y="617"/>
      <point x="233" y="715"/>
      <point x="401" y="645" type="curve"/>
      <point x="404" y="615" smooth="yes"/>
      <point x="407" y="543" smooth="yes"/>
      <point x="407" y="369" type="curve" smooth="yes"/>
      <point x="407" y="112"/>
      <point x="400" y="48"/>
      <point x="400" y="48" type="curve"/>
      <point x="398" y="37"/>
      <point x="358" y="28"/>
      <point x="337" y="26" type="curve"/>
      <point x="334" y="-3" type="line"/>
      <point x="366" y="-1" smooth="yes"/>
      <point x="412" y="0" smooth="yes"/>
      <point x="446" y="0" type="curve" smooth="yes" name="hr01"/>
      <point x="480" y="0"/>
      <point x="522" y="-1"/>
      <point x="554" y="-3" type="curve" name="hr02"/>
      <point x="557" y="26" type="line"/>
      <point x="536" y="28" smooth="yes"/>
      <point x="495" y="37" smooth="yes"/>
      <point x="493" y="48" type="curve" smooth="yes"/>
      <point x="492" y="50"/>
      <point x="482" y="99"/>
      <point x="482" y="367" type="curve"/>
      <point x="489" y="369" smooth="yes"/>
      <point x="554" y="394" smooth="yes"/>
      <point x="617" y="394" type="curve" smooth="yes"/>
      <point x="673" y="394" smooth="yes"/>
      <point x="709" y="381" smooth="yes"/>
      <point x="709" y="325" type="curve" smooth="yes"/>
      <point x="709" y="229" type="line" smooth="yes"/>
      <point x="709" y="83"/>
      <point x="701" y="48"/>
      <point x="701" y="48" type="curve"/>
      <point x="699" y="37"/>
      <point x="659" y="28"/>
      <point x="638" y="26" type="curve"/>
      <point x="635" y="-3" type="line"/>
      <point x="667" y="-1" smooth="yes"/>
      <point x="713" y="0" smooth="yes"/>
      <point x="747" y="0" type="curve" smooth="yes" name="hr03"/>
      <point x="781" y="0"/>
      <point x="823" y="-1"/>
      <point x="855" y="-3" type="curve" name="hr04"/>
      <point x="858" y="26" type="line"/>
      <point x="837" y="28"/>
      <point x="796" y="37"/>
      <point x="794" y="48" type="curve"/>
      <point x="794" y="48" smooth="yes"/>
      <point x="784" y="83" smooth="yes"/>
      <point x="784" y="229" type="curve" smooth="yes"/>
      <point x="784" y="364" type="line" smooth="yes"/>
      <point x="784" y="443" smooth="yes"/>
      <point x="741" y="459" smooth="yes"/>
      <point x="682" y="459" type="curve" smooth="yes"/>
      <point x="614" y="459"/>
      <point x="528" y="426"/>
      <point x="482" y="402" type="curve"/>
      <point x="482" y="604"/>
      <point x="484" y="721"/>
      <point x="484" y="721" type="curve"/>
      <point x="465" y="730" type="line"/>
      <point x="444" y="710" type="line"/>
      <point x="303" y="753"/>
      <point x="101" y="671"/>
      <point x="101" y="451" type="curve"/>
      <point x="67" y="453"/>
      <point x="53" y="455"/>
      <point x="53" y="455" type="curve"/>
      <point x="30" y="416" type="line"/>
      <point x="33" y="405" type="line"/>
      <point x="33" y="405"/>
      <point x="58" y="405"/>
      <point x="102" y="406" type="curve"/>
      <point x="102" y="120"/>
      <point x="95" y="48"/>
      <point x="94" y="48" type="curve"/>
      <point x="92" y="37"/>
      <point x="47" y="28"/>
      <point x="26" y="26" type="curve"/>
      <point x="23" y="-3" type="line"/>
      <point x="55" y="-1" smooth="yes"/>
      <point x="101" y="0" smooth="yes"/>
      <point x="135" y="0" type="curve" smooth="yes" name="hr05"/>
      <point x="169" y="0"/>
      <point x="228" y="-1"/>
      <point x="260" y="-3" type="curve" name="hr06"/>
      <point x="263" y="26" type="line"/>
      <point x="242" y="27" smooth="yes"/>
      <point x="188" y="37" smooth="yes"/>
      <point x="187" y="48" type="curve" smooth="yes"/>
      <point x="186" y="56"/>
      <point x="177" y="125"/>
    </contour>
  </outline>
</glyph>
<glyph name="fk" format="1">
  <advance width="833"/>
  <outline>
    <contour>
      <point x="516" y="249" type="line"/>
      <point x="701" y="-9" type="line"/>
      <point x="725" y="-7"/>
      <point x="795" y="-3"/>
      <point x="830" y="-3" type="curve" name="hr01"/>
      <point x="833" y="26" type="line"/>
      <point x="812" y="28" smooth="yes"/>
      <point x="778" y="26" smooth="yes"/>
      <point x="766" y="43" type="curve" smooth="yes"/>
      <point x="578" y="294" type="line"/>
      <point x="702" y="386" type="line" smooth="yes"/>
      <point x="723" y="401"/>
      <point x="753" y="419"/>
      <point x="808" y="427" type="curve"/>
      <point x="805" y="456" type="line"/>
      <point x="764" y="454" smooth="yes"/>
      <point x="743" y="453" smooth="yes"/>
      <point x="694" y="453" type="curve" smooth="yes"/>
      <point x="645" y="453"/>
      <point x="635" y="454"/>
      <point x="594" y="456" type="curve"/>
      <point x="591" y="427" type="line"/>
      <point x="634" y="426" smooth="yes"/>
      <point x="651" y="415" smooth="yes"/>
      <point x="651" y="404" type="curve" smooth="yes"/>
      <point x="651" y="400" smooth="yes"/>
      <point x="649" y="396" smooth="yes"/>
      <point x="644" y="392" type="curve" smooth="yes"/>
      <point x="484" y="272" type="line"/>
      <point x="484" y="352" type="line" smooth="yes"/>
      <point x="484" y="596"/>
      <point x="486" y="721"/>
      <point x="486" y="721" type="curve"/>
      <point x="467" y="730" type="line"/>
      <point x="445" y="709" type="line"/>
      <point x="304" y="754"/>
      <point x="101" y="672"/>
      <point x="101" y="451" type="curve"/>
      <point x="67" y="453"/>
      <point x="53" y="455"/>
      <point x="53" y="455" type="curve"/>
      <point x="30" y="416" type="line"/>
      <point x="33" y="405" type="line"/>
      <point x="33" y="405"/>
      <point x="58" y="405"/>
      <point x="102" y="406" type="curve"/>
      <point x="102" y="120"/>
      <point x="95" y="48"/>
      <point x="94" y="48" type="curve"/>
      <point x="92" y="37"/>
      <point x="47" y="28"/>
      <point x="26" y="26" type="curve"/>
      <point x="23" y="-3" type="line"/>
      <point x="55" y="-1" smooth="yes"/>
      <point x="101" y="0" smooth="yes"/>
      <point x="135" y="0" type="curve" smooth="yes" name="hr02"/>
      <point x="169" y="0"/>
      <point x="228" y="-1"/>
      <point x="260" y="-3" type="curve" name="hr03"/>
      <point x="263" y="26" type="line"/>
      <point x="242" y="27" smooth="yes"/>
      <point x="188" y="37" smooth="yes"/>
      <point x="187" y="48" type="curve" smooth="yes"/>
      <point x="186" y="56"/>
      <point x="177" y="125"/>
      <point x="177" y="406" type="curve"/>
      <point x="247" y="405"/>
      <point x="281" y="402"/>
      <point x="281" y="402" type="curve"/>
      <point x="312" y="441" type="line"/>
      <point x="307" y="453" type="line"/>
      <point x="307" y="453"/>
      <point x="259" y="452"/>
      <point x="177" y="452" type="curve"/>
      <point x="177" y="618"/>
      <point x="233" y="716"/>
      <point x="403" y="644" type="curve"/>
      <point x="406" y="613" smooth="yes"/>
      <point x="409" y="541" smooth="yes"/>
      <point x="409" y="369" type="curve" smooth="yes"/>
      <point x="409" y="112"/>
      <point x="400" y="48"/>
      <point x="400" y="48" type="curve"/>
      <point x="398" y="37"/>
      <point x="358" y="28"/>
      <point x="337" y="26" type="curve"/>
      <point x="334" y="-3" type="line"/>
      <point x="366" y="-1" smooth="yes"/>
      <point x="412" y="0" smooth="yes"/>
      <point x="446" y="0" type="curve" smooth="yes" name="hr04"/>
      <point x="480" y="0"/>
      <point x="522" y="-1"/>
      <point x="554" y="-3" type="curve" name="hr05"/>
      <point x="557" y="26" type="line"/>
      <point x="536" y="28" smooth="yes"/>
      <point x="495" y="37" smooth="yes"/>
      <point x="493" y="48" type="curve" smooth="yes"/>
      <point x="493" y="50"/>
      <point x="488" y="95"/>
      <point x="485" y="226" type="curve"/>
    </contour>
  </outline>
</glyph>
<glyph name="grave.case" format="1">
  <advance width="285"/>
  <outline>
    <contour>
      <point x="152" y="748" type="line" name="hr00"/>
      <point x="182" y="753" type="line"/>
      <point x="48" y="952" type="line"/>
      <point x="15" y="952"/>
      <point x="-18" y="933"/>
      <point x="-21" y="910" type="curve"/>
    </contour>
  </outline>
</glyph>
<glyph name="hungarumlaut.case" format="1">
  <advance width="285"/>
  <outline>
    <contour>
      <point x="243" y="910" type="line" name="hr00"/>
      <point x="240" y="933"/>
      <point x="207" y="952"/>
      <point x="174" y="952" type="curve"/>
      <point x="40" y="753" type="line"/>
      <point x="70" y="748" type="line"/>
    </contour>
    <contour>
      <point x="72" y="910" type="line"/>
      <point x="69" y="933"/>
      <point x="36" y="952"/>
      <point x="3" y="952" type="curve"/>
      <point x="-131" y="753" type="line"/>
      <point x="-101" y="748" type="line"/>
    </contour>
  </outline>
</glyph>
<glyph name="macron.case" format="1">
  <advance width="360"/>
  <outline>
    <contour>
      <point x="340" y="848" type="line"/>
      <point x="332" y="863" type="line"/>
      <point x="290" y="860" smooth="yes"/>
      <point x="248" y="859" smooth="yes"/>
      <point x="206" y="859" type="curve" smooth="yes"/>
      <point x="156" y="859"/>
      <point x="107" y="861"/>
      <point x="57" y="864" type="curve" name="hr01"/>
      <point x="18" y="818" type="line"/>
      <point x="26" y="802" type="line"/>
      <point x="72" y="805" smooth="yes"/>
      <point x="118" y="806" smooth="yes"/>
      <point x="163" y="806" type="curve" smooth="yes" name="hr02"/>
      <point x="209" y="806"/>
      <point x="255" y="805"/>
      <point x="301" y="802" type="curve" name="hr03"/>
    </contour>
  </outline>
</glyph>
<glyph name="osuperior" format="1">
  <advance width="331"/>
  <outline>
    <contour>
      <point x="245" y="496" type="curve" name="hr00"/>
      <point x="244" y="461" smooth="yes"/>
      <point x="227" y="394" smooth="yes"/>
      <point x="163" y="394" type="curve" smooth="yes"/>
      <point x="102" y="394" smooth="yes"/>
      <point x="84" y="455" smooth="yes"/>
      <point x="84" y="511" type="curve" smooth="yes"/>
      <point x="84" y="544" smooth="yes"/>
      <point x="96" y="623" smooth="yes"/>
      <point x="166" y="623" type="curve" smooth="yes"/>
      <point x="232" y="623"/>
      <point x="245" y="555"/>
    </contour>
    <contour>
      <point x="308" y="519" type="curve" smooth="yes"/>
      <point x="308" y="600" smooth="yes"/>
      <point x="268" y="656" smooth="yes"/>
      <point x="173" y="656" type="curve" smooth="yes"/>
      <point x="63" y="656" smooth="yes"/>
      <point x="21" y="575" smooth="yes"/>
      <point x="21" y="496" type="curve" smooth="yes"/>
      <point x="21" y="415" smooth="yes"/>
      <point x="61" y="360" smooth="yes"/>
      <point x="156" y="360" type="curve" smooth="yes"/>
      <point x="266" y="360" smooth="yes"/>
      <point x="308" y="439" smooth="yes"/>
    </contour>
  </outline>
</glyph>
<glyph name="ring.case" format="1">
  <advance width="325"/>
  <outline>
    <contour>
      <point x="159" y="924" type="curve" name="hr00"/>
      <point x="197" y="924" smooth="yes"/>
      <point x="210" y="886" smooth="yes"/>
      <point x="210" y="845" type="curve" smooth="yes"/>
      <point x="210" y="791" smooth="yes"/>
      <point x="188" y="775" smooth="yes"/>
      <point x="161" y="775" type="curve" smooth="yes"/>
      <point x="124" y="775" smooth="yes"/>
      <point x="109" y="814" smooth="yes"/>
      <point x="109" y="854" type="curve" smooth="yes"/>
      <point x="109" y="908" smooth="yes"/>
      <point x="132" y="924" smooth="yes"/>
    </contour>
    <contour>
      <point x="57" y="849" type="curve"/>
      <point x="57" y="791" smooth="yes"/>
      <point x="104" y="745" smooth="yes"/>
      <point x="162" y="745" type="curve" smooth="yes"/>
      <point x="220" y="745" smooth="yes"/>
      <point x="266" y="791" smooth="yes"/>
      <point x="266" y="849" type="curve" smooth="yes"/>
      <point x="266" y="907" smooth="yes"/>
      <point x="220" y="954" smooth="yes"/>
      <point x="162" y="954" type="curve" smooth="yes"/>
      <point x="104" y="954" smooth="yes"/>
      <point x="57" y="907" smooth="yes"/>
    </contour>
  </outline>
</glyph>
